<?xml version="1.0" encoding="utf-8"?>
<!-- Generator: Adobe Illustrator 28.2.0, SVG Export Plug-In . SVG Version: 6.00 Build 0)  -->
<svg version="1.1" xmlns="http://www.w3.org/2000/svg" xmlns:xlink="http://www.w3.org/1999/xlink" x="0px" y="0px"
	 viewBox="0 0 83.48 88.17" style="enable-background:new 0 0 83.48 88.17;" xml:space="preserve">
<style type="text/css">
	.st0{fill-rule:evenodd;clip-rule:evenodd;fill:#FFFFFF;}
	.st1{fill-rule:evenodd;clip-rule:evenodd;fill:#152640;}
	.st2{fill-rule:evenodd;clip-rule:evenodd;fill:#FFD52A;}
</style>
<g id="Camada_1">
</g>
<g id="Camada_1_1_">
</g>
<g id="Camada_1_2_">
	<g>
		<path class="st2" d="M46.62,45.96L62,63.81h5.5L51.75,45.53l0.63-0.12c4.12-0.8,7.51-2.59,9.84-5.2c2.26-2.53,3.54-5.83,3.54-9.72
			c0-4.7-1.84-8.52-5-11.17c-3.26-2.73-7.93-4.24-13.47-4.24h-8.41v3.99h8.27c4.19,0,7.77,1.1,10.29,3.12
			c2.46,1.97,3.9,4.8,3.9,8.31c0,3.48-1.44,6.3-3.91,8.26c-2.52,2-6.1,3.1-10.28,3.1c-1.28,0-2.25-0.02-3.17-0.04
			c-0.97-0.02-1.89-0.04-3.21-0.03v3.97c1.16,0,1.94,0.02,2.74,0.04c0.77,0.02,1.56,0.05,2.84,0.05h0.17L46.62,45.96z"/>
		<path class="st0" d="M32.88,28.9c5.53-1.6,8.66-5.89,8.66-11.42c0-7.57-6.18-12.44-16.01-12.44H4.58v49.47h14.56
			c0.03-0.32,0.07-0.62,0.11-0.9c0.06-0.41,0.13-0.83,0.21-1.25l0.02-0.11c0.15-0.79,0.33-1.57,0.55-2.33H9.75V31.74h16.22
			c3.27,0,6.01,0.5,8.13,1.47c1.72-0.81,3.47-1.4,5.24-1.81C37.65,30.21,35.49,29.36,32.88,28.9L32.88,28.9z M26.82,54.49
			c0.02-0.17,0.05-0.33,0.07-0.48l0.02-0.11c0.24-1.43,0.63-2.8,1.15-4.09c6.87-0.65,10.93-4.35,10.93-9.35
			c0-0.43-0.03-0.84-0.09-1.24c1.57-0.56,3.2-0.91,4.87-1.13c0.2,0.93,0.3,1.92,0.3,2.95C44.09,48.91,37.32,54.22,26.82,54.49
			L26.82,54.49z M9.75,9.62h15.28c7.13,0,11.57,3.27,11.57,8.44c0,5.67-4.44,9.09-12.44,9.09H9.75V9.62z"/>
		<path class="st0" d="M56.92,36.54l15.5,17.97h6.47L63.04,36.1c8.29-1.6,13.68-7.2,13.68-15.28c0-9.75-7.71-15.79-18.84-15.79
			H45.33v4.73h12.4c8.08,0,13.82,4.15,13.82,11.06c0,6.84-5.75,10.99-13.82,10.99c-10.16,0-19.61-1.18-28.18,5.86
			c-4.45,3.66-7.62,8.83-8.76,14.83l-0.02,0.11c-0.15,0.78-0.26,1.58-0.34,2.38c-0.08,0.83-0.12,1.67-0.12,2.53
			c0,7.21,2.82,13.59,7.39,18.18c4.62,4.63,11.03,7.44,18.15,7.44c5.97,0,11.18-1.82,15.21-4.96c2.94-2.3,5.25-5.3,6.78-8.82h-5.43
			c-1.2,2.18-2.82,4.03-4.79,5.49c-3.13,2.31-7.13,3.62-11.77,3.62c-5.8,0-10.96-2.27-14.66-6.03c-3.68-3.74-5.91-8.96-5.91-14.91
			c0-0.63,0.03-1.25,0.08-1.87c0.05-0.62,0.13-1.23,0.23-1.84l0.02-0.11c0.85-4.99,3.34-9.27,6.91-12.31
			C39.59,35.37,48.33,36.54,56.92,36.54z"/>
	</g>
</g>
</svg>
