<?xml version="1.0" encoding="utf-8"?>
<!-- Generator: Adobe Illustrator 28.2.0, SVG Export Plug-In . SVG Version: 6.00 Build 0)  -->
<svg version="1.1" xmlns="http://www.w3.org/2000/svg" xmlns:xlink="http://www.w3.org/1999/xlink" x="0px" y="0px"
	 viewBox="0 0 182.51 124.01" style="enable-background:new 0 0 182.51 124.01;" xml:space="preserve" fill = "rgba(21, 38, 64, 1)">
<style type="text/css">
	.st0{fill-rule:evenodd;clip-rule:evenodd;fill:#FFFFFF;}
	.st1{fill-rule:evenodd;clip-rule:evenodd;fill:rgba(21, 38, 64, 1);}
	.st2{fill-rule:evenodd;clip-rule:evenodd;fill:#FFD52A;}
</style>
<g id="Camada_1">
</g>
<g id="Camada_1_1_">
	<g>
		<path class="st2" d="M45.89,55.71l11.8,13.68h4.22L49.83,55.38l0.48-0.09c3.16-0.61,5.76-1.99,7.54-3.98
			c1.74-1.94,2.71-4.47,2.71-7.45c0-3.61-1.41-6.53-3.84-8.57c-2.5-2.09-6.08-3.25-10.33-3.25h-6.45v3.06h6.34
			c3.21,0,5.96,0.84,7.89,2.39c1.89,1.51,2.99,3.68,2.99,6.37c0,2.67-1.11,4.83-3,6.33c-1.93,1.53-4.68,2.38-7.89,2.38
			c-0.98,0-1.72-0.02-2.43-0.03c-0.75-0.02-1.45-0.03-2.46-0.02v3.05c0.89,0,1.49,0.01,2.1,0.03c0.59,0.02,1.2,0.04,2.18,0.04h0.13
			L45.89,55.71z"/>
		<path class="st1" d="M97.7,29.57c1.21-0.35,1.9-1.29,1.9-2.51c0-1.66-1.36-2.73-3.51-2.73h-4.6v10.85h4.69
			c2.41,0,3.97-1.18,3.97-2.95C100.16,30.86,99.35,29.86,97.7,29.57L97.7,29.57z M92.63,25.34h3.35c1.56,0,2.54,0.72,2.54,1.85
			c0,1.24-0.97,1.99-2.73,1.99h-3.16V25.34L92.63,25.34z M92.63,34.18v-3.99h3.56c1.79,0,2.86,0.69,2.86,1.92
			c0,1.21-1.09,2.07-2.89,2.07H92.63L92.63,34.18z M109.43,32.03l1.4,3.16h1.21l-4.93-10.93h-1.07l-4.93,10.93h1.21l1.4-3.16H109.43
			L109.43,32.03z M108.97,30.99h-4.77l2.38-5.38L108.97,30.99L108.97,30.99z M120.81,25.37h-4.04v9.81h-1.13v-9.81h-4.04v-1.04h9.21
			V25.37L120.81,25.37z M123.78,24.33h-1.13v10.85h1.13V24.33L123.78,24.33z M130.56,24.1c-2.3,0-3.85,1.24-3.85,3.11
			c0,1.47,1.01,2.47,3,2.84l1.88,0.37c1.4,0.26,2.04,0.94,2.04,1.85c0,1.29-1.1,2.14-2.84,2.14c-2,0-3.18-0.99-3.45-2.68h-1.12
			c0.26,2.35,1.92,3.7,4.52,3.7c2.43,0,4.04-1.31,4.04-3.29c0-1.55-1.09-2.46-3.02-2.82L130.13,29c-1.44-0.26-2.22-0.86-2.22-1.85
			c0-1.26,1.09-2.06,2.73-2.06c1.82,0,2.78,0.86,3.03,2.19h1.12C134.52,25.13,132.77,24.1,130.56,24.1L130.56,24.1z M144.93,25.37
			v-1.04h-9.21v1.04h4.04v9.81h1.13v-9.81H144.93L144.93,25.37z M152.64,32.03h-5.7l-1.4,3.16h-1.21l4.93-10.93h1.07l4.93,10.93
			h-1.21L152.64,32.03L152.64,32.03z M152.17,30.99l-2.39-5.38l-2.38,5.38H152.17L152.17,30.99z M95.33,47.52l3.4,3.94h1.42
			l-3.48-4.04c1.82-0.35,3-1.58,3-3.35c0-2.14-1.69-3.46-4.13-3.46H91.5v10.85h1.13v-3.94H95.33L95.33,47.52z M92.63,46.49v-4.84
			h2.87c1.77,0,3.03,0.91,3.03,2.43c0,1.5-1.26,2.41-3.03,2.41H92.63L92.63,46.49z M109.53,48.31l1.4,3.16h1.21l-4.93-10.93h-1.07
			l-4.93,10.93h1.21l1.4-3.16H109.53L109.53,48.31z M109.07,47.27h-4.77l2.38-5.38L109.07,47.27L109.07,47.27z M124.64,40.61h-0.86
			l-4.37,7.34l-4.37-7.34h-0.88v10.85h1.13l-0.03-8.41l3.76,6.27h0.77l3.73-6.22l-0.02,8.36h1.14V40.61L124.64,40.61z M132.88,40.39
			c-3.13,0-5.65,2.52-5.65,5.65c0,3.13,2.52,5.65,5.65,5.65c3.13,0,5.65-2.52,5.65-5.65C138.53,42.91,136.01,40.39,132.88,40.39
			L132.88,40.39z M132.86,50.64c-2.52,0-4.5-2.07-4.5-4.6c0-2.52,1.98-4.6,4.5-4.6c2.54,0,4.52,2.07,4.52,4.6
			C137.38,48.56,135.4,50.64,132.86,50.64L132.86,50.64z M144.69,40.37c-2.3,0-3.85,1.25-3.85,3.11c0,1.47,1.01,2.47,3,2.84
			l1.88,0.37c1.4,0.26,2.04,0.94,2.04,1.85c0,1.29-1.1,2.14-2.84,2.14c-1.99,0-3.18-0.99-3.45-2.68h-1.12
			c0.26,2.35,1.91,3.7,4.52,3.7c2.43,0,4.04-1.31,4.04-3.29c0-1.55-1.09-2.46-3.02-2.82l-1.64-0.32c-1.44-0.26-2.22-0.86-2.22-1.85
			c0-1.26,1.09-2.06,2.73-2.06c1.82,0,2.78,0.86,3.03,2.19h1.12C148.65,41.41,146.89,40.37,144.69,40.37L144.69,40.37z M96.65,66.88
			c-2.52,0-4.48-1.96-4.48-4.56c0-2.6,1.96-4.56,4.48-4.56c2.04,0,3.53,1.17,3.99,2.95h1.18c-0.53-2.39-2.51-4.04-5.17-4.04
			c-3.13,0-5.63,2.46-5.63,5.65s2.51,5.65,5.63,5.65c2.67,0,4.64-1.64,5.17-4.04h-1.18C100.18,65.72,98.69,66.88,96.65,66.88
			L96.65,66.88z M110.97,64.58l1.4,3.16h1.21l-4.93-10.93h-1.07l-4.93,10.93h1.21l1.4-3.16H110.97L110.97,64.58z M110.5,63.55h-4.77
			l2.38-5.38L110.5,63.55L110.5,63.55z M126.08,56.89h-0.86l-4.37,7.34l-4.37-7.34h-0.88v10.85h1.13l-0.03-8.41l3.76,6.27h0.77
			l3.73-6.22l-0.02,8.36h1.14V56.89L126.08,56.89z M136.42,64.58l1.4,3.16h1.21l-4.93-10.93h-1.07l-4.93,10.93h1.21l1.4-3.16H136.42
			L136.42,64.58z M135.96,63.55h-4.77l2.38-5.38L135.96,63.55L135.96,63.55z M144.88,63.8l3.4,3.94h1.42l-3.48-4.04
			c1.82-0.35,3-1.58,3-3.35c0-2.14-1.69-3.46-4.13-3.46h-4.04v10.85h1.13V63.8H144.88L144.88,63.8z M142.18,62.76v-4.84h2.87
			c1.77,0,3.03,0.91,3.03,2.43c0,1.5-1.26,2.41-3.03,2.41H142.18L142.18,62.76z M159.08,64.58l1.4,3.16h1.21l-4.93-10.93h-1.07
			l-4.93,10.93h1.21l1.4-3.16H159.08L159.08,64.58z M158.62,63.55h-4.77l2.38-5.38L158.62,63.55L158.62,63.55z M111.3,80.08
			l3.4,3.94h1.42l-3.48-4.04c1.82-0.35,3-1.58,3-3.35c0-2.14-1.69-3.46-4.13-3.46h-4.04v10.85h1.13v-3.94H111.3L111.3,80.08z
			 M108.6,79.04v-4.84h2.87c1.77,0,3.03,0.91,3.03,2.43c0,1.5-1.26,2.41-3.03,2.41H108.6L108.6,79.04z M119.2,73.17h-1.13v10.85
			h1.13V73.17L119.2,73.17z M128.46,78.4c1.21-0.35,1.9-1.29,1.9-2.51c0-1.66-1.36-2.73-3.51-2.73h-4.6v10.85h4.69
			c2.41,0,3.97-1.18,3.97-2.95C130.92,79.7,130.1,78.69,128.46,78.4L128.46,78.4z M123.38,74.18h3.35c1.56,0,2.54,0.72,2.54,1.85
			c0,1.24-0.97,1.99-2.73,1.99h-3.16V74.18L123.38,74.18z M123.38,83.02v-3.99h3.56c1.79,0,2.86,0.69,2.86,1.92
			c0,1.21-1.09,2.07-2.89,2.07H123.38L123.38,83.02z M134.52,74.21h6.4v-1.04h-7.53v10.85h7.53v-1.04h-6.4v-3.83h5.76V78.1h-5.76
			V74.21L134.52,74.21z M144.61,73.17h-1.13v10.85h1.13V73.17L144.61,73.17z M151.49,80.08l3.4,3.94h1.42l-3.48-4.04
			c1.82-0.35,3-1.58,3-3.35c0-2.14-1.69-3.46-4.13-3.46h-4.04v10.85h1.13v-3.94H151.49L151.49,80.08z M148.79,79.04v-4.84h2.87
			c1.77,0,3.03,0.91,3.03,2.43c0,1.5-1.26,2.41-3.03,2.41H148.79L148.79,79.04z M163.2,72.95c-3.13,0-5.65,2.52-5.65,5.65
			c0,3.13,2.52,5.65,5.65,5.65c3.13,0,5.65-2.52,5.65-5.65C168.85,75.47,166.33,72.95,163.2,72.95L163.2,72.95z M163.18,83.19
			c-2.52,0-4.5-2.07-4.5-4.6s1.98-4.6,4.5-4.6c2.54,0,4.52,2.07,4.52,4.6S165.72,83.19,163.18,83.19z"/>
		<path class="st2" d="M99.68,84.02h1.47l-2.36-2.11l0.06-0.1l2.09-3.05h-1.13l-1.76,2.47l-2.03-1.8c-1.88-1.64-2.87-2.46-2.87-3.65
			c0-1.1,0.81-1.87,1.96-1.87c1.05,0,1.87,0.64,2.03,1.87h1.09c-0.19-1.8-1.4-2.86-3.1-2.86c-1.8,0-3.11,1.17-3.11,2.82
			c0,0.81,0.33,1.47,1.05,2.27c-1.28,0.51-2.27,1.56-2.27,3.03c0,1.87,1.52,3.18,3.81,3.18c1.44,0,2.59-0.54,3.54-1.55L99.68,84.02
			L99.68,84.02z M94.64,83.26c-1.64,0-2.76-0.96-2.76-2.22c0-1.09,0.78-1.88,1.9-2.3c0.37,0.37,0.81,0.75,1.32,1.21l2.33,2.07
			C96.67,82.82,95.73,83.26,94.64,83.26z"/>
		<rect x="80.72" y="18.89" class="st2" width="1.25" height="70.56"/>
		<path class="st1" d="M35.36,42.63C39.6,41.4,42,38.11,42,33.87c0-5.8-4.74-9.54-12.27-9.54H13.66v37.93h11.17
			c0.03-0.24,0.05-0.47,0.08-0.69c0.04-0.32,0.1-0.64,0.16-0.96l0.02-0.08c0.12-0.61,0.26-1.2,0.42-1.79h-7.88V44.8h12.44
			c2.51,0,4.61,0.39,6.23,1.13c1.32-0.62,2.66-1.07,4.02-1.39C39.01,43.63,37.36,42.98,35.36,42.63L35.36,42.63z M30.71,62.25
			c0.02-0.13,0.04-0.25,0.05-0.36l0.01-0.08c0.19-1.1,0.48-2.15,0.88-3.14c5.27-0.5,8.38-3.33,8.38-7.17c0-0.33-0.02-0.65-0.07-0.95
			c1.21-0.43,2.46-0.7,3.74-0.87c0.16,0.72,0.23,1.47,0.23,2.27C43.95,57.97,38.76,62.04,30.71,62.25L30.71,62.25z M17.62,27.84
			h11.71c5.47,0,8.87,2.51,8.87,6.47c0,4.35-3.4,6.97-9.54,6.97H17.62V27.84z"/>
		<path class="st1" d="M53.79,48.48l11.88,13.78h4.96L58.48,48.15c6.36-1.23,10.49-5.52,10.49-11.71c0-7.48-5.91-12.11-14.45-12.11
			H44.9v3.63h9.51c6.19,0,10.6,3.18,10.6,8.48c0,5.24-4.41,8.42-10.6,8.42c-7.79,0-15.04-0.9-21.6,4.49
			c-3.41,2.81-5.84,6.77-6.72,11.37l-0.02,0.08c-0.11,0.6-0.2,1.21-0.26,1.83c-0.06,0.63-0.09,1.28-0.09,1.94
			c0,5.53,2.16,10.42,5.67,13.94c3.54,3.55,8.46,5.71,13.92,5.71c4.58,0,8.57-1.39,11.66-3.81c2.25-1.76,4.03-4.06,5.2-6.77H58
			c-0.92,1.67-2.16,3.09-3.67,4.21c-2.4,1.77-5.47,2.78-9.02,2.78c-4.45,0-8.41-1.74-11.24-4.63c-2.82-2.87-4.53-6.87-4.53-11.43
			c0-0.48,0.02-0.96,0.06-1.43c0.04-0.47,0.1-0.95,0.17-1.41l0.01-0.09c0.65-3.83,2.56-7.11,5.3-9.44
			C40.51,47.59,47.2,48.48,53.79,48.48z"/>
		<polygon class="st1" points="109.76,55.71 108.6,53.92 107.49,53.92 106.33,55.71 107.17,55.71 108.05,54.32 108.92,55.71 		"/>
		<path class="st1" d="M10.97,99.04c-0.34,0-0.62,0.07-0.84,0.21c-0.22,0.14-0.33,0.35-0.33,0.63c0,0.28,0.11,0.49,0.33,0.64
			c0.22,0.15,0.68,0.31,1.39,0.48c0.71,0.17,1.24,0.41,1.6,0.72c0.36,0.31,0.54,0.77,0.54,1.37c0,0.6-0.23,1.09-0.68,1.47
			c-0.45,0.38-1.05,0.56-1.79,0.56c-1.08,0-2.04-0.37-2.88-1.12l0.73-0.88c0.7,0.61,1.42,0.91,2.18,0.91c0.38,0,0.67-0.08,0.9-0.24
			c0.22-0.16,0.33-0.38,0.33-0.64c0-0.27-0.1-0.48-0.31-0.62c-0.21-0.15-0.57-0.28-1.07-0.41c-0.51-0.12-0.89-0.23-1.16-0.34
			c-0.26-0.1-0.5-0.24-0.7-0.4c-0.41-0.31-0.61-0.78-0.61-1.42c0-0.64,0.23-1.13,0.7-1.48c0.47-0.35,1.04-0.52,1.73-0.52
			c0.44,0,0.88,0.07,1.32,0.22c0.44,0.15,0.81,0.35,1.13,0.61l-0.62,0.88c-0.2-0.18-0.48-0.34-0.83-0.46S11.31,99.04,10.97,99.04
			L10.97,99.04z M20.86,99.76c-0.47-0.49-1.05-0.73-1.74-0.73c-0.69,0-1.26,0.24-1.74,0.73c-0.47,0.49-0.71,1.08-0.71,1.78
			c0,0.7,0.24,1.29,0.71,1.78c0.47,0.49,1.05,0.73,1.74,0.73c0.69,0,1.26-0.24,1.74-0.73c0.47-0.49,0.71-1.08,0.71-1.78
			C21.56,100.84,21.33,100.25,20.86,99.76L20.86,99.76z M21.71,104.09c-0.7,0.68-1.56,1.02-2.59,1.02c-1.03,0-1.89-0.34-2.59-1.02
			c-0.7-0.68-1.05-1.53-1.05-2.55c0-1.02,0.35-1.87,1.05-2.55c0.7-0.68,1.56-1.02,2.59-1.02c1.03,0,1.89,0.34,2.59,1.02
			c0.7,0.68,1.05,1.53,1.05,2.55C22.76,102.55,22.41,103.4,21.71,104.09L21.71,104.09z M28.2,103.98c0.4,0,0.75-0.07,1.04-0.2
			c0.29-0.14,0.59-0.35,0.91-0.65l0.75,0.77c-0.73,0.81-1.62,1.22-2.67,1.22c-1.05,0-1.91-0.34-2.6-1.01
			c-0.69-0.67-1.03-1.52-1.03-2.55c0-1.03,0.35-1.89,1.05-2.57c0.7-0.69,1.59-1.03,2.66-1.03c1.07,0,1.97,0.4,2.69,1.19l-0.74,0.81
			c-0.33-0.32-0.64-0.54-0.93-0.66c-0.29-0.13-0.64-0.19-1.03-0.19c-0.7,0-1.29,0.23-1.76,0.68c-0.48,0.45-0.71,1.03-0.71,1.73
			c0,0.7,0.24,1.29,0.71,1.76C27,103.75,27.56,103.98,28.2,103.98L28.2,103.98z M33.14,98.13h1.17v6.91h-1.17V98.13L33.14,98.13z
			 M41.9,98.13v1.1h-3.69v1.83h3.31v1.04h-3.31v1.85h3.81v1.1h-4.98v-6.91H41.9L41.9,98.13z M46.7,98.13c1.24,0,2.19,0.3,2.86,0.91
			c0.67,0.6,1,1.44,1,2.52c0,1.07-0.32,1.93-0.97,2.55c-0.65,0.63-1.64,0.94-2.97,0.94h-2.3v-6.91H46.7L46.7,98.13z M49.38,101.58
			c0-1.58-0.91-2.37-2.72-2.37h-1.17v4.74h1.3c0.84,0,1.48-0.2,1.92-0.6C49.16,102.94,49.38,102.36,49.38,101.58L49.38,101.58z
			 M53.85,103.47l-0.69,1.57h-1.25l3.05-6.91h1.25l3.05,6.91h-1.25l-0.69-1.57H53.85L53.85,103.47z M56.84,102.39l-1.26-2.85
			l-1.26,2.85H56.84L56.84,102.39z M63.4,98.13c1.24,0,2.19,0.3,2.86,0.91c0.67,0.6,1,1.44,1,2.52c0,1.07-0.32,1.93-0.97,2.55
			c-0.65,0.63-1.64,0.94-2.97,0.94h-2.29v-6.91H63.4L63.4,98.13z M66.08,101.58c0-1.58-0.91-2.37-2.72-2.37h-1.17v4.74h1.3
			c0.84,0,1.48-0.2,1.92-0.6C65.86,102.94,66.08,102.36,66.08,101.58L66.08,101.58z M74.43,98.13v1.1h-3.69v1.83h3.31v1.04h-3.31
			v1.85h3.81v1.1h-4.98v-6.91H74.43L74.43,98.13z M83.84,98.13c1.24,0,2.19,0.3,2.86,0.91c0.67,0.6,1,1.44,1,2.52
			c0,1.07-0.32,1.93-0.97,2.55c-0.65,0.63-1.64,0.94-2.97,0.94h-2.29v-6.91H83.84L83.84,98.13z M86.52,101.58
			c0-1.58-0.91-2.37-2.72-2.37h-1.17v4.74h1.3c0.84,0,1.48-0.2,1.92-0.6C86.3,102.94,86.52,102.36,86.52,101.58L86.52,101.58z
			 M94.87,98.13v1.1h-3.69v1.83h3.31v1.04h-3.31v1.85h3.81v1.1h-4.98v-6.91H94.87L94.87,98.13z M102.88,103.47l-0.69,1.57h-1.25
			l3.05-6.91h1.25l3.05,6.91h-1.25l-0.69-1.57H102.88L102.88,103.47z M105.87,102.39l-1.26-2.85l-1.26,2.85H105.87L105.87,102.39z
			 M112.43,98.13c1.24,0,2.19,0.3,2.86,0.91c0.67,0.6,1,1.44,1,2.52c0,1.07-0.32,1.93-0.97,2.55c-0.65,0.63-1.64,0.94-2.97,0.94
			h-2.29v-6.91H112.43L112.43,98.13z M115.11,101.58c0-1.58-0.91-2.37-2.72-2.37h-1.17v4.74h1.3c0.84,0,1.48-0.2,1.92-0.6
			C114.89,102.94,115.11,102.36,115.11,101.58L115.11,101.58z M121.76,105.04h-1.31l-2.78-6.91h1.31l2.13,5.16l2.13-5.16h1.31
			L121.76,105.04L121.76,105.04z M131.16,99.76c-0.47-0.49-1.05-0.73-1.74-0.73c-0.69,0-1.26,0.24-1.74,0.73
			c-0.47,0.49-0.71,1.08-0.71,1.78c0,0.7,0.24,1.29,0.71,1.78c0.47,0.49,1.05,0.73,1.74,0.73c0.69,0,1.26-0.24,1.74-0.73
			c0.47-0.49,0.71-1.08,0.71-1.78C131.86,100.84,131.63,100.25,131.16,99.76L131.16,99.76z M132.01,104.09
			c-0.7,0.68-1.56,1.02-2.59,1.02c-1.03,0-1.89-0.34-2.59-1.02c-0.7-0.68-1.05-1.53-1.05-2.55c0-1.02,0.35-1.87,1.05-2.55
			c0.7-0.68,1.56-1.02,2.59-1.02c1.03,0,1.89,0.34,2.59,1.02c0.7,0.68,1.05,1.53,1.05,2.55
			C133.06,102.55,132.71,103.4,132.01,104.09L132.01,104.09z M140.13,101.68h1.17v2.36c-0.65,0.72-1.59,1.08-2.8,1.08
			c-1.02,0-1.88-0.34-2.57-1.01c-0.69-0.67-1.03-1.52-1.03-2.55c0-1.03,0.35-1.89,1.05-2.57c0.7-0.69,1.55-1.03,2.55-1.03
			s1.82,0.29,2.48,0.87l-0.62,0.89c-0.27-0.23-0.54-0.39-0.82-0.48c-0.27-0.09-0.59-0.13-0.95-0.13c-0.7,0-1.29,0.23-1.76,0.68
			c-0.47,0.45-0.71,1.05-0.71,1.78c0,0.74,0.23,1.33,0.69,1.77c0.46,0.45,1.02,0.67,1.68,0.67c0.66,0,1.21-0.14,1.65-0.43V101.68
			L140.13,101.68z M144.56,103.47l-0.69,1.57h-1.25l3.05-6.91h1.25l3.05,6.91h-1.25l-0.69-1.57H144.56L144.56,103.47z
			 M147.55,102.39l-1.26-2.85l-1.26,2.85H147.55L147.55,102.39z M154.11,98.13c1.24,0,2.19,0.3,2.86,0.91c0.67,0.6,1,1.44,1,2.52
			c0,1.07-0.32,1.93-0.97,2.55c-0.65,0.63-1.64,0.94-2.97,0.94h-2.29v-6.91H154.11L154.11,98.13z M156.79,101.58
			c0-1.58-0.91-2.37-2.72-2.37h-1.17v4.74h1.3c0.84,0,1.48-0.2,1.92-0.6C156.56,102.94,156.79,102.36,156.79,101.58L156.79,101.58z
			 M165.21,99.76c-0.47-0.49-1.05-0.73-1.74-0.73s-1.26,0.24-1.74,0.73c-0.47,0.49-0.71,1.08-0.71,1.78c0,0.7,0.24,1.29,0.71,1.78
			c0.47,0.49,1.05,0.73,1.74,0.73s1.26-0.24,1.74-0.73c0.47-0.49,0.71-1.08,0.71-1.78C165.92,100.84,165.68,100.25,165.21,99.76
			L165.21,99.76z M166.07,104.09c-0.7,0.68-1.56,1.02-2.59,1.02c-1.03,0-1.89-0.34-2.59-1.02c-0.7-0.68-1.05-1.53-1.05-2.55
			c0-1.02,0.35-1.87,1.05-2.55c0.7-0.68,1.56-1.02,2.59-1.02c1.03,0,1.89,0.34,2.59,1.02c0.7,0.68,1.05,1.53,1.05,2.55
			C167.12,102.55,166.77,103.4,166.07,104.09L166.07,104.09z M171.5,99.04c-0.34,0-0.62,0.07-0.84,0.21
			c-0.22,0.14-0.33,0.35-0.33,0.63c0,0.28,0.11,0.49,0.33,0.64c0.22,0.15,0.68,0.31,1.39,0.48c0.71,0.17,1.24,0.41,1.6,0.72
			c0.36,0.31,0.54,0.77,0.54,1.37c0,0.6-0.23,1.09-0.68,1.47c-0.45,0.38-1.05,0.56-1.79,0.56c-1.08,0-2.04-0.37-2.88-1.12l0.73-0.88
			c0.7,0.61,1.42,0.91,2.18,0.91c0.38,0,0.67-0.08,0.9-0.24c0.22-0.16,0.33-0.38,0.33-0.64c0-0.27-0.1-0.48-0.31-0.62
			c-0.21-0.15-0.57-0.28-1.07-0.41c-0.51-0.12-0.89-0.23-1.16-0.34c-0.26-0.1-0.5-0.24-0.7-0.4c-0.41-0.31-0.61-0.78-0.61-1.42
			c0-0.64,0.23-1.13,0.7-1.48c0.47-0.35,1.04-0.52,1.73-0.52c0.44,0,0.88,0.07,1.32,0.22c0.44,0.15,0.81,0.35,1.13,0.61l-0.62,0.88
			c-0.2-0.18-0.48-0.34-0.83-0.46S171.84,99.04,171.5,99.04z"/>
	</g>
</g>
<g id="Camada_1_2_">
</g>
</svg>
