<svg width="467" height="27" viewBox="0 0 467 27" fill="none" xmlns="http://www.w3.org/2000/svg">
<path d="M29.1179 5.04749H214.794" stroke="#073050" stroke-miterlimit="10" stroke-linecap="round" stroke-linejoin="round"/>
<path d="M39.2458 0L32.5521 5.04747L39.2458 10.0949L45.9373 5.04747L39.2458 0Z" fill="#073050"/>
<path d="M26.9308 2.16321L23.1888 5.04748L26.9308 7.93175L30.6727 5.04748L26.9308 2.16321Z" fill="#073050"/>
<path d="M18.1033 1.52295L0 5.04753L18.1033 8.57211L21.8453 5.04753L18.1033 1.52295Z" fill="#073050"/>
<path d="M51.3859 1.70459V8.39177" stroke="#073050" stroke-miterlimit="10" stroke-linecap="round" stroke-linejoin="round"/>
<path d="M57.7832 1.70459V8.39177" stroke="#073050" stroke-miterlimit="10" stroke-linecap="round" stroke-linejoin="round"/>
<path d="M437.882 5.04749H252.209" stroke="#073050" stroke-miterlimit="10" stroke-linecap="round" stroke-linejoin="round"/>
<path d="M427.757 0L434.451 5.04747L427.757 10.0949L421.065 5.04747L427.757 0Z" fill="#073050"/>
<path d="M440.071 2.16321L443.813 5.04748L440.071 7.93175L436.327 5.04748L440.071 2.16321Z" fill="#073050"/>
<path d="M448.899 1.52295L467 5.04753L448.899 8.57211L445.155 5.04753L448.899 1.52295Z" fill="#073050"/>
<path d="M415.614 1.70459V8.39177" stroke="#073050" stroke-miterlimit="10" stroke-linecap="round" stroke-linejoin="round"/>
<path d="M409.219 1.70459V8.39177" stroke="#073050" stroke-miterlimit="10" stroke-linecap="round" stroke-linejoin="round"/>
<path d="M315.333 12.2091C316.072 11.0929 318.112 10.5636 319.892 11.0265C322.297 11.6539 323.439 13.3873 322.438 14.8972C321.085 16.9393 318.202 17.7801 314.099 17.059L257.883 5.57527C249.363 4.07689 243.374 5.82188 240.567 10.0632C238.491 13.1998 240.859 16.798 245.853 18.1017C249.546 19.065 253.785 17.9661 255.321 15.6472C256.456 13.9325 255.163 11.9639 252.432 11.2515C250.412 10.7251 248.095 11.3251 247.254 12.5941" stroke="#073050" stroke-miterlimit="10" stroke-linecap="round" stroke-linejoin="round"/>
<path d="M151.67 12.2091C150.93 11.0929 148.89 10.5636 147.11 11.0265C144.705 11.6539 143.566 13.3873 144.565 14.8972C145.918 16.9393 148.801 17.7801 152.903 17.059L209.12 5.57527C217.64 4.07689 223.628 5.82188 226.435 10.0632C228.512 13.1998 226.144 16.798 221.15 18.1017C217.456 19.065 213.218 17.9661 211.681 15.6472C210.547 13.9325 211.84 11.9639 214.571 11.2515C216.59 10.7251 218.908 11.3251 219.749 12.5941" stroke="#073050" stroke-miterlimit="10" stroke-linecap="round" stroke-linejoin="round"/>
<path d="M199.851 7.88269L196.022 15.5433C194.584 18.1579 191.747 19.2035 188.184 18.7218C185.549 18.3656 183.875 16.7374 184.44 15.0833C184.858 13.8603 186.778 13.083 188.726 13.3455C190.167 13.5402 191.083 14.43 190.773 15.3342" stroke="#073050" stroke-miterlimit="10" stroke-linecap="round" stroke-linejoin="round"/>
<path d="M267.151 7.88269L270.98 15.5433C272.418 18.1579 275.255 19.2035 278.818 18.7218C281.453 18.3656 283.127 16.7374 282.562 15.0833C282.144 13.8603 280.224 13.083 278.278 13.3455C276.838 13.5402 275.921 14.43 276.231 15.3342" stroke="#073050" stroke-miterlimit="10" stroke-linecap="round" stroke-linejoin="round"/>
<path d="M233.497 9.7602L230.693 11.5203L233.497 13.2803L236.3 11.5203L233.497 9.7602Z" fill="#073050"/>
<path d="M233.496 1.47701L228.801 4.42505L233.496 7.3731L238.192 4.42506L233.496 1.47701Z" fill="#073050"/>
<path d="M233.501 15.3918L228.505 18.5299L233.501 26.0939L238.497 18.5299L233.501 15.3918Z" fill="#073050"/>
</svg>
