<svg width="373" height="27" viewBox="0 0 373 27" fill="none" xmlns="http://www.w3.org/2000/svg">
<path d="M23.2568 5.04749H171.559" stroke="#073050" stroke-miterlimit="10" stroke-linecap="round" stroke-linejoin="round"/>
<path d="M31.3462 0L25.9999 5.04747L31.3462 10.0949L36.6908 5.04747L31.3462 0Z" fill="#ECD390"/>
<path d="M21.5101 2.16321L18.5214 5.04748L21.5101 7.93175L24.4989 5.04748L21.5101 2.16321Z" fill="#ECD390"/>
<path d="M14.4594 1.52289L0 5.04747L14.4594 8.57205L17.4482 5.04747L14.4594 1.52289Z" fill="#ECD390"/>
<path d="M41.0426 1.70462V8.3918" stroke="#073050" stroke-miterlimit="10" stroke-linecap="round" stroke-linejoin="round"/>
<path d="M46.1523 1.70462V8.3918" stroke="#073050" stroke-miterlimit="10" stroke-linecap="round" stroke-linejoin="round"/>
<path d="M349.743 5.04749H201.443" stroke="#073050" stroke-miterlimit="10" stroke-linecap="round" stroke-linejoin="round"/>
<path d="M341.656 0L347.002 5.04747L341.656 10.0949L336.311 5.04747L341.656 0Z" fill="#ECD390"/>
<path d="M351.492 2.16321L354.48 5.04748L351.492 7.93175L348.501 5.04748L351.492 2.16321Z" fill="#ECD390"/>
<path d="M358.542 1.52289L373 5.04747L358.542 8.57205L355.552 5.04747L358.542 1.52289Z" fill="#ECD390"/>
<path d="M331.957 1.70462V8.3918" stroke="#073050" stroke-miterlimit="10" stroke-linecap="round" stroke-linejoin="round"/>
<path d="M326.85 1.70462V8.3918" stroke="#073050" stroke-miterlimit="10" stroke-linecap="round" stroke-linejoin="round"/>
<path d="M251.861 12.2091C252.452 11.0929 254.081 10.5636 255.503 11.0265C257.424 11.6539 258.336 13.3873 257.536 14.8972C256.455 16.9393 254.153 17.7801 250.876 17.059L205.975 5.57527C199.17 4.07689 194.387 5.82188 192.145 10.0632C190.486 13.1998 192.378 16.798 196.366 18.1017C199.317 19.065 202.702 17.9661 203.929 15.6472C204.835 13.9325 203.802 11.9639 201.621 11.2515C200.008 10.7251 198.157 11.3251 197.485 12.5941" stroke="#073050" stroke-miterlimit="10" stroke-linecap="round" stroke-linejoin="round"/>
<path d="M121.141 12.2091C120.55 11.0929 118.921 10.5636 117.499 11.0265C115.578 11.6539 114.668 13.3873 115.466 14.8972C116.547 16.9393 118.849 17.7801 122.126 17.059L167.027 5.57527C173.832 4.07689 178.615 5.82188 180.857 10.0632C182.516 13.1998 180.624 16.798 176.636 18.1017C173.686 19.065 170.3 17.9661 169.073 15.6472C168.167 13.9325 169.2 11.9639 171.381 11.2515C172.994 10.7251 174.845 11.3251 175.517 12.5941" stroke="#073050" stroke-miterlimit="10" stroke-linecap="round" stroke-linejoin="round"/>
<path d="M159.624 7.88272L156.566 15.5434C155.417 18.1579 153.151 19.2035 150.306 18.7218C148.201 18.3656 146.864 16.7374 147.315 15.0833C147.649 13.8604 149.183 13.0831 150.739 13.3455C151.889 13.5402 152.621 14.43 152.373 15.3342" stroke="#073050" stroke-miterlimit="10" stroke-linecap="round" stroke-linejoin="round"/>
<path d="M213.378 7.88272L216.436 15.5434C217.585 18.1579 219.85 19.2035 222.696 18.7218C224.801 18.3656 226.138 16.7374 225.687 15.0833C225.353 13.8604 223.819 13.0831 222.265 13.3455C221.115 13.5402 220.383 14.43 220.63 15.3342" stroke="#073050" stroke-miterlimit="10" stroke-linecap="round" stroke-linejoin="round"/>
<path d="M186.497 9.76017L184.258 11.5202L186.497 13.2803L188.737 11.5202L186.497 9.76017Z" fill="#ECD390"/>
<path d="M186.497 1.47701L182.746 4.42505L186.497 7.3731L190.248 4.42506L186.497 1.47701Z" fill="#ECD088"/>
<path d="M186.501 15.3919L182.51 18.53L186.501 26.094L190.491 18.53L186.501 15.3919Z" fill="#ECD390"/>
</svg>
