<?xml version="1.0" encoding="utf-8"?><svg version="1.1" id="Layer_1" xmlns="http://www.w3.org/2000/svg" xmlns:xlink="http://www.w3.org/1999/xlink" x="0px" y="0px" viewBox="0 0 122.88 94.65" style="enable-background:new 0 0 122.88 94.65" xml:space="preserve"><style type="text/css">.st0{fill-rule:evenodd;clip-rule:evenodd;}</style><g><path class="st0" d="M2.42,36.14L53.39,0l51.23,36.14H2.42L2.42,36.14L2.42,36.14z M118.66,85.44c3.23,1.8,3.39,4.64,4.22,8H75.45 c0.83-3.36,0.99-6.2,4.22-8c5.37-3,10.89,0.02,13.45-7.47c-0.81-0.96-1.51-2.04-2.18-3.1l-2.2-3.5c-0.8-1.2-1.22-2.3-1.25-3.2 c-0.01-0.42,0.06-0.81,0.22-1.14c0.16-0.35,0.42-0.65,0.76-0.88c0.16-0.11,0.34-0.2,0.53-0.27c-0.14-1.9-0.2-4.29-0.1-6.29 c0.05-0.48,0.14-0.95,0.27-1.43c0.56-2.01,1.97-3.63,3.72-4.74c0.96-0.61,2.02-1.08,3.12-1.39c0.7-0.2-0.59-2.43,0.13-2.51 c3.49-0.36,9.15,2.83,11.59,5.47c1.22,1.32,1.99,3.08,2.16,5.4l-0.14,5.71c0.61,0.19,1,0.57,1.16,1.2 c0.18,0.69-0.02,1.67-0.61,3.01c-0.01,0.02-0.02,0.05-0.04,0.07l-2.51,4.13c-0.92,1.52-1.86,3.04-3.08,4.24 C109.2,85.29,112.91,82.23,118.66,85.44L118.66,85.44z M0,88.89h7.89v-5.5h1.15v-2.62h3.35V49.27H5.54v-7.54h95.69v3.63 c-2.25-0.86-4.57-1.33-6.61-1.12c-3.05,0.31-4.14,1.87-4.22,4.1c-0.36,0.19-0.72,0.41-1.08,0.63c-1.37,0.87-2.6,1.95-3.58,3.2 c-2.62,3.34-2.72,6.24-2.66,10.23l0.03,1.27c-0.69,0.87-1.11,1.79-1.31,2.74V49.27H71.26v31.49h3.35v2.17 c-0.27,0.19-0.54,0.4-0.81,0.62c-0.69,0.57-1.31,1.2-1.84,1.91c-0.54,0.72-1.1,1.85-1.58,3.07c-0.39,0.99-0.76,2.13-1.03,3.14 c-0.15,0.44-0.23,0.92-0.23,1.41c0,0.55,0.1,1.09,0.29,1.57H0V88.89L0,88.89L0,88.89z M28.32,83.39h3.86v-2.62h3.35V49.27H24.98 v31.49h3.35V83.39L28.32,83.39L28.32,83.39L28.32,83.39z M51.46,83.39h3.87v-2.62h3.34V49.27H48.12v31.49h3.35V83.39L51.46,83.39 L51.46,83.39L51.46,83.39z M78.47,81.07v-0.31h1.04C79.16,80.86,78.81,80.96,78.47,81.07L78.47,81.07z M81.82,80.16v-10.8 c0.11,0.62,0.28,1.24,0.5,1.86c0.31,0.8,0.75,1.63,1.32,2.5l2.3,3.66c0.28,0.45,0.57,0.9,0.89,1.38c-1.19,0.47-2.92,0.9-4.58,1.3 L81.82,80.16L81.82,80.16z M36.23,27.03L53.47,13.8l17.34,13.23H36.23L36.23,27.03L36.23,27.03z"/></g></svg>