<?xml version="1.0" standalone="no"?>
<!DOCTYPE svg PUBLIC "-//W3C//DTD SVG 20010904//EN"
 "http://www.w3.org/TR/2001/REC-SVG-20010904/DTD/svg10.dtd">
<svg version="1.0" xmlns="http://www.w3.org/2000/svg"
 width="36.000000pt" height="36.000000pt" viewBox="0 0 36.000000 36.000000"
 preserveAspectRatio="xMidYMid meet">

<g transform="translate(0.000000,36.000000) scale(0.100000,-0.100000)"
fill="#152640" stroke="none">
<path d="M88 314 c-66 -33 -88 -49 -88 -64 0 -19 7 -20 180 -20 173 0 180 1
180 20 0 15 -22 31 -90 65 -49 25 -91 45 -92 44 -2 0 -42 -20 -90 -45z m109
-10 c8 -21 -13 -42 -28 -27 -13 13 -5 43 11 43 6 0 13 -7 17 -16z"/>
<path d="M22 208 c7 -20 58 -23 58 -4 0 11 -10 16 -31 16 -20 0 -29 -4 -27
-12z"/>
<path d="M150 205 c0 -10 10 -15 30 -15 20 0 30 5 30 15 0 10 -10 15 -30 15
-20 0 -30 -5 -30 -15z"/>
<path d="M280 204 c0 -11 8 -14 27 -12 39 4 42 28 4 28 -21 0 -31 -5 -31 -16z"/>
<path d="M32 138 c2 -31 8 -44 21 -46 14 -3 17 4 17 42 0 40 -3 46 -21 46 -18
0 -20 -5 -17 -42z"/>
<path d="M160 135 c0 -38 3 -45 20 -45 17 0 20 7 20 45 0 38 -3 45 -20 45 -17
0 -20 -7 -20 -45z"/>
<path d="M290 134 c0 -38 3 -45 18 -42 12 2 18 15 20 46 3 37 1 42 -17 42 -18
0 -21 -6 -21 -46z"/>
<path d="M20 70 c0 -5 14 -10 30 -10 17 0 30 5 30 10 0 6 -13 10 -30 10 -16 0
-30 -4 -30 -10z"/>
<path d="M150 70 c0 -5 14 -10 30 -10 17 0 30 5 30 10 0 6 -13 10 -30 10 -16
0 -30 -4 -30 -10z"/>
<path d="M280 70 c0 -5 14 -10 30 -10 17 0 30 5 30 10 0 6 -13 10 -30 10 -16
0 -30 -4 -30 -10z"/>
<path d="M0 25 l0 -25 180 0 180 0 0 25 0 25 -180 0 -180 0 0 -25z"/>
</g>
</svg>
