<svg id="Layer_1" data-name="Layer 1" xmlns="http://www.w3.org/2000/svg" viewBox="0 0 104.4 122.88" fill="#fff"><title>interactivity</title><path d="M99.22,55.85l-.06-.23a8,8,0,1,0-11.87,9.1l.12.06a8,8,0,0,0,6,.83l.24-.06a8,8,0,0,0,5.59-9.7Zm-74.61-7.7,10.65-1.24a19.75,19.75,0,0,1,2.63-8.76L38,38a19,19,0,0,1,1.72-2.46l-7.26-8.25a12.75,12.75,0,0,1-3.59,1.57h0A13,13,0,0,1,13,19.69v0a12.87,12.87,0,0,1,1.31-9.8h0a13,13,0,1,1,22.46,13c-.15.26-.31.51-.48.76l7.32,8.32A19.83,19.83,0,0,1,60.7,29l2.8-6.26A12.69,12.69,0,1,1,82.19,19h0a12.68,12.68,0,0,1-13.9,6l-2.75,6.17a19.88,19.88,0,0,1,9.25,19.16L80,51.76c.07-.15.15-.29.23-.43A13,13,0,0,1,104,54.46v0a13,13,0,0,1-9.19,15.86h0a13,13,0,0,1-9.81-1.31L84.79,69a12.93,12.93,0,0,1-6.3-12.1l-5-1.34a19.29,19.29,0,0,1-.89,1.9,19.8,19.8,0,0,1-11.14,9.45A2.47,2.47,0,0,1,61,67V69A1.61,1.61,0,0,1,61.4,69h2.34a1.72,1.72,0,0,1,.39,0c2.81.45,4.21,2.32,4.87,4.75a1.73,1.73,0,0,1,.91-.26h2.34a1.58,1.58,0,0,1,.38,0c3,.47,4.39,2.56,5,5.22a1.74,1.74,0,0,1,.45-.06h2.34a1.74,1.74,0,0,1,.39,0c6.42,1,6.33,9.29,6.27,14.69,0,2.49.1,5,.13,7.47-.29,5.82-2.93,10.36-5.64,15l-.23.4a14.33,14.33,0,0,1-4.18,4.8,9.39,9.39,0,0,1-5.35,1.7H51.6a5.31,5.31,0,0,1-4.74-2.56A13.93,13.93,0,0,1,45,114.52L32.33,95.36a22.69,22.69,0,0,1-2.53-4.29A12.44,12.44,0,0,1,28.7,87a8.33,8.33,0,0,1,.59-4,4.82,4.82,0,0,1,2.61-2.57,6,6,0,0,1,3.4-.25,9.48,9.48,0,0,1,4.12,2l4.36,3.58,1.41,1.15V65.09a2.77,2.77,0,0,1-.93-.38,19.83,19.83,0,0,1-8.36-11.5c-.09-.33-.17-.66-.24-1l-10.3,1.2a12.83,12.83,0,0,1-1.59,5.32l-.08.15A12.69,12.69,0,0,1,6.5,63.6l-.15-.08A12.66,12.66,0,0,1,1.63,46.33l.08-.15A12.68,12.68,0,0,1,18.9,41.46l.15.08a12.65,12.65,0,0,1,5.56,6.61ZM8.87,59.41a7.87,7.87,0,0,0,10.64-2.95l.07-.11a7.87,7.87,0,0,0-2.95-10.64l-.11-.06a7.87,7.87,0,0,0-10.64,3l-.07.1a7.91,7.91,0,0,0,3,10.65l.11.06ZM74,99.66a1.39,1.39,0,0,1,2.77,0V106A1.39,1.39,0,0,1,74,106V99.66Zm-8.19-2.79a1.39,1.39,0,1,1,2.77,0V106a1.39,1.39,0,0,1-2.77,0V96.87ZM45.19,91.26a1.51,1.51,0,0,1-.26-.18c-.85-.67-2.08-1.67-3.29-2.66l-4.38-3.6a6.08,6.08,0,0,0-2.61-1.31,2.69,2.69,0,0,0-1.48.06,1.55,1.55,0,0,0-.79.82,5,5,0,0,0-.3,2.38,9.11,9.11,0,0,0,.82,2.94,20,20,0,0,0,2.15,3.63L48,113a1.7,1.7,0,0,1,.27.74,11.29,11.29,0,0,0,1.37,4.7,2.11,2.11,0,0,0,1.89,1.07H71.79a6.07,6.07,0,0,0,3.44-1.11,11.14,11.14,0,0,0,3.16-3.69l.24-.42c2.5-4.31,4.93-8.5,5.19-13.47L83.69,95a2,2,0,0,1,0-.25l0-1.35c0-4.22.12-10.68-3.39-11.31H78c.07,1.81,0,3.67-.13,5.36,0,1-.11,1.93-.11,2.79a1.7,1.7,0,0,1-3.39,0c0-.81.06-1.85.12-3,.24-4.21.56-9.83-2.38-10.39H69.91a1.54,1.54,0,0,1-.43-.05,49.22,49.22,0,0,1-.09,6.09c-.06,1-.11,1.93-.11,2.79a1.7,1.7,0,0,1-3.39,0c0-.81.06-1.85.12-3,.24-4.2.55-9.82-2.38-10.38H61.4a1.61,1.61,0,0,1-.44-.06v8.76a1.7,1.7,0,0,1-3.39,0V58.9c0-3-1.21-4.82-2.74-5.59a3.92,3.92,0,0,0-1.78-.43,4,4,0,0,0-1.76.42c-1.52.78-2.71,2.65-2.71,5.67V94.39a1.7,1.7,0,0,1-3.39,0V91.26Zm0-32.52c.07-4.36,2.05-7.18,4.57-8.46a7.3,7.3,0,0,1,3.29-.78,7.2,7.2,0,0,1,3.3.79c2.58,1.3,4.61,4.2,4.61,8.61v2.47a14.54,14.54,0,1,0-18.4-20.7l-.08.14a14.49,14.49,0,0,0-1.44,11,14.6,14.6,0,0,0,4.15,6.91ZM32.47,20.35a8,8,0,0,0-13.94-8h0a8,8,0,0,0-.83,6l.06.24a8,8,0,0,0,9.7,5.6l.24-.07a8,8,0,0,0,4.77-3.71ZM78,16.63a7.87,7.87,0,1,0-4.78,3.67A7.88,7.88,0,0,0,78,16.63Z"/></svg>