<svg id="Layer_1" data-name="Layer 1" xmlns="http://www.w3.org/2000/svg" viewBox="0 0 122.88 67.71"><defs><style>.cls-1{fill-rule:evenodd;}</style></defs><title>rights</title><path class="cls-1" d="M24.81,14.83v1.56a.59.59,0,0,1-.58.58h-4.9a.58.58,0,0,1-.58-.58V14.83H13.9a.64.64,0,0,1-.67-.58V9.35a.63.63,0,0,1,.67-.58h27a8.64,8.64,0,0,0-.49.89,6.55,6.55,0,0,0-.4,1c-.26.19-.51.39-.75.59h0l-.34.33a17.25,17.25,0,0,0-2.54,3.22ZM43,15.55a1.52,1.52,0,0,1,.91-.45,1.69,1.69,0,0,1,.54.06,2.36,2.36,0,0,1,1.06.69,55.11,55.11,0,0,1,5.41,5.48c.91.83,1.11,1.7.4,2.54L50,25.32a1.71,1.71,0,0,1-2.41,0c-4.11-3.45-9-5.23-4.61-9.73Zm0,7.88a14.4,14.4,0,0,0,1.73,6.91,25.37,25.37,0,0,1,3.55,5.76c.48,1.25.88,2.43,1.42,3.69l7,23.26h20.1l-11-26.19c-.74-1.19-.9-.9.07-1.82a40.3,40.3,0,0,0,5.19-6c4.14-5.79,6.35-7.94,3-13.91l-2.52-4.6C68.43,5,62.07,10.12,57.3,12.85c-1.39,1.73,1.75,5.43,4.53,4.39L65.4,15.9l1.06,2.51c-2.71-.36-8.21,1.15-9.47,1.88a25.63,25.63,0,0,0-4.7,4.52c-.37.45-.72.93-1.07,1.42-1.83,2.45-3.69.76-5.45-.62-.94-.73-1.89-1.52-2.76-2.18ZM62.13,0a2,2,0,0,1,.56.15c.93.41,2,2.29,2.47,3.16.3.55,1.14,2,1.83,3.3L61.11,9c-1-1.52-1.8-3.09-2.65-4.34a1.86,1.86,0,0,1-.31-2A4.49,4.49,0,0,1,60,.89,5.35,5.35,0,0,1,62.13,0Zm-7,3.91a1.66,1.66,0,0,1,.56.12,2.48,2.48,0,0,1,1,.8A14,14,0,0,1,58.39,7L60,9.49c-2,.92-4.76,1.41-4.85,4-1.2-1.63-2.27-3.38-3.32-4.72a1.87,1.87,0,0,1-.44-2c.42-1.15,2.67-2.91,3.81-2.89ZM48.89,9.17a1.72,1.72,0,0,1,.54.06,2.36,2.36,0,0,1,1,.68,13.41,13.41,0,0,1,1.74,2c.73,1,3.54,4.55,3.94,5.37A1.47,1.47,0,0,1,56,19L54.28,20.6a1.71,1.71,0,0,1-2.41,0c-2.13-2-4.09-4.64-5.8-6.48a1.78,1.78,0,0,1-.58-1.85c.28-1.05,2.33-3,3.4-3.06ZM77,8.77h33a.63.63,0,0,1,.67.58v4.9a.64.64,0,0,1-.67.58h-5.47v1.56A.59.59,0,0,1,104,17h-4.9a.58.58,0,0,1-.58-.58V14.83H80.23c-.35-.77-.76-1.58-1.25-2.45L77,8.77Zm26.22,10.15,19.41,32.95a1.81,1.81,0,0,1,.23.93h0v.13c0,4.1-9.68,14.78-21.46,14.78S80.16,61.23,80,53.19a1.54,1.54,0,0,1-.06-.43,1.86,1.86,0,0,1,.31-1l19.85-32.89a1.79,1.79,0,0,1,2.46-.66,1.81,1.81,0,0,1,.7.73Zm.08,7.46V51H118L103.3,26.38ZM99.84,51V26.42L84.85,51Zm-76.52-32,19.4,32.95a1.82,1.82,0,0,1,.24.93h0s0-4,0,.13S33.3,67.71,21.51,67.71.26,61.23.05,53.19a2,2,0,0,1,0-.43,1.78,1.78,0,0,1,.31-1L20.15,18.85a1.81,1.81,0,0,1,3.17.07Zm.07,7.46V51H38.06L23.39,26.38ZM19.93,51V26.42L4.94,51Z"/></svg>