<svg xmlns="http://www.w3.org/2000/svg" shape-rendering="geometricPrecision" text-rendering="geometricPrecision" image-rendering="optimizeQuality" fill-rule="evenodd" clip-rule="evenodd" viewBox="0 0 380 512.05"><path fill-rule="nonzero" d="m224.83 43.51 76.53 80.43-77.81 1.3 1.28-81.73zm81.3 233.94.14.13c7.89 6.68 8.94 7.84 19.4 8.35 7.74.28 16.17.61 21.76 8.9 4.78 7.21 5.19 12.67 5.53 18.12l.06.61c.36 7.01 2.52 11.56 6.67 17.18 5.06 6.67 8.09 12.33 9.23 17.52 2.35 10.56-2.66 17.57-10.17 23.92-1.96 1.68-3.7 3.16-4.24 4.38-1.42 3.3-1.49 6.33-1.49 9.49-.26 16.83-10.41 30.79-29.3 29.52-8.01-.66-10.38 2.12-16.85 7.21-13.6 10.97-24.24 10.88-37.8-.07-6.3-5.1-8.64-7.66-16.77-7.21-17.89 1.2-29.09-11.74-29.38-29.51-.17-7.91-.3-9.22-5.86-14.02-7.54-6.41-12.55-13.16-10.17-23.85 1.14-5.19 4.24-10.85 9.29-17.51 10.61-13.72 3.31-22.67 12.27-35.92l.13-.13c5.53-8.15 13.88-8.42 21.56-8.69 10.23-.34 11.88-1.81 19.47-8.42 13.1-11.41 23.42-11.43 36.52 0zm64.01 215.4-20.28-3.64-10.18 18.26c-.06.13-.13.27-.27.33-4.24 5.26-8.15 5.12-11.52 2.36-3.64-2.96-6.07-9.3-7.61-13.47l-.61-1.55-21.49-40.57c-.68-1.27-.2-2.82 1.08-3.43.13-.07.27-.13.33-.13 2.23-.74 4.72-2.3 7.42-4.31 2.82-2.1 5.79-4.73 8.82-7.42.54-.47 1.21-.74 1.95-.67 5.8.13 11.46-.34 16.51-2.02 4.99-1.69 9.57-4.65 13.48-9.64.87-1.14 2.49-1.35 3.57-.47.27.27.54.54.67.88l24.86 47.97 2.16 4.65c.07.13.14.27.14.4 1 3.57 1.21 6.67 0 9.03-1.57 3.06-5.85 4.48-9.03 3.44zm-143.98-3.64-20.29 3.64c-2.96.99-7.57-.6-9.09-3.58-1.21-2.29-1.01-5.39 0-9.02l2.29-5.06 24.86-47.97c.13-.33.4-.6.67-.87 1.15-.88 2.7-.68 3.58.47 7.65 9.81 18.15 11.93 29.98 11.65.67-.06 1.34.14 1.95.68 4.2 3.73 10.95 9.95 16.24 11.72 1.45.58 2.2 2.15 1.41 3.57L256.27 495l-.61 1.55c-1.54 4.18-3.97 10.51-7.61 13.48-3.37 2.69-7.21 2.89-11.52-2.36-3.23-6.11-6.98-12.38-10.37-18.46zm61.85-183.74c-12.26 0-23.31 4.99-31.33 13.01-8.02 8.01-13.01 19.06-13.01 31.33 0 12.26 4.99 23.31 13.01 31.33s19.07 13 31.33 13c12.26 0 23.31-4.98 31.33-13 8.01-8.02 13-19.07 13-31.33-.14-24.46-19.79-44.34-44.33-44.34zM67.32 366.46h97.23v-14.61H67.32v14.61zm0-56.1h133.7l.01-.21c.34-5.05 1.03-9.62 2.57-14.4H67.32v14.61zm0-56.1h196.29c3.63-2.36 7.49-4.15 11.61-5.46l.09-.02v-9.13H67.32v14.61zm0-168.29h68.5V71.36h-68.5v14.61zm0 56.1h97.23v-14.61H67.32v14.61zm0 56.1h207.72v-14.61H67.32v14.61zm275.32-62.66c0-5.81-3.91-10.83-9.28-12.29L220.64 4.69c-2.35-2.9-5.92-4.69-9.83-4.69H22.9C10.24 0 0 10.23 0 22.9v392.02c0 12.64 10.26 22.9 22.9 22.9h170.77l10.46-20.2.12-.26H20.46V20.35h180.08v115.04c0 7.04 5.7 12.85 12.85 12.85h108.79v113.97c5.2 4.31 3.18 1.77 3.95 1.73 5.82.29 10.8.48 16.51 2.07v-130.5z"/></svg>