<svg width="20" height="15" viewBox="0 0 20 15" fill="none" xmlns="http://www.w3.org/2000/svg">
<path d="M18.3333 2.94971V11.283C18.3333 11.8356 18.1138 12.3655 17.7231 12.7562C17.3324 13.1469 16.8025 13.3664 16.25 13.3664H3.74996C3.19743 13.3664 2.66752 13.1469 2.27682 12.7562C1.88612 12.3655 1.66663 11.8356 1.66663 11.283V2.94971" stroke="#170F49" stroke-width="1.4" stroke-linecap="round" stroke-linejoin="round"/>
<path d="M18.3333 2.94954C18.3333 2.39701 18.1138 1.86711 17.7231 1.47641C17.3324 1.0857 16.8025 0.866211 16.25 0.866211H3.74996C3.19743 0.866211 2.66752 1.0857 2.27682 1.47641C1.88612 1.86711 1.66663 2.39701 1.66663 2.94954L8.89579 7.46343C9.2269 7.67038 9.6095 7.7801 9.99996 7.7801C10.3904 7.7801 10.773 7.67038 11.1041 7.46343L18.3333 2.94954Z" stroke="#170F49" stroke-width="1.4" stroke-linecap="round" stroke-linejoin="round"/>
</svg>
