<?xml version="1.0" encoding="utf-8"?><svg version="1.1" id="Layer_1" xmlns="http://www.w3.org/2000/svg" xmlns:xlink="http://www.w3.org/1999/xlink" x="0px" y="0px" viewBox="0 0 122.88 74.51" style="enable-background:new 0 0 122.88 74.51" xml:space="preserve"><style type="text/css">.st0{fill-rule:evenodd;clip-rule:evenodd;}</style><g><path class="st0" d="M0,74.51c0-26.52,25.04-11.84,26.96-28.1c0.21-1.77-3.97-8.52-4.92-11.76c-2.05-3.27-2.78-8.45-0.54-11.9 c0.89-1.37,0.51-6.37,0.51-8.26c0-5.34,2.52-8.4,5.93-11.25c1.25-1.04,1.46-2.29,3.28-2.73c8.99-2.17,23.7,2.77,23.7,13.99 c0,2.38-0.55,6.74,0.74,8.61c1.25,1.81,1.4,4.44,0.95,6.9c-0.49,0.38-0.97,0.79-1.45,1.21c-1.07,0.95-2.14,2-3.19,3.15 c-0.05,0.04-0.09,0.09-0.14,0.13l-0.01,0.01l0,0c-0.5,0.5-0.89,1.14-1.08,1.88c-0.42,1.57,0.11,3.17,1.24,4.18 c-1.33,2.47-2.52,4.82-2.31,5.85c0.33,1.67,1.57,3.21,3.34,4.62l0,0.03c0,0.09,0.01,0.18,0.02,0.26c0.06,0.61,0.16,1.19,0.3,1.71 c0.16,0.58,0.37,1.15,0.64,1.68c0.47,0.93,1.1,1.74,1.9,2.38c0.4,0.32,0.84,0.6,1.3,0.82c0.12,0.14,0.24,0.28,0.36,0.41l0.2,0.24 c-3.66,0.7-6.2,1.36-8.34,3.48c-2.37,2.35-3.27,5.65-3.27,11.6c0,0.3,0.03,0.59,0.07,0.87L0,74.51L0,74.51z M77.03,29.08 c4.5-26.54,30.44-25.91,34.34,1.9c2.56,18.31,13.54,17.65-3.6,17.65h-6.84c-0.03,4.66-0.75,7.04,4.08,9.66 c4.83,2.61,17.87,3.96,17.87,10.58v4.24c0,0.34-0.28,0.62-0.62,0.62H92.19l0-0.09c0-5.95-0.91-9.26-3.28-11.6 c-1.87-1.85-4.04-2.58-7-3.21c0.59-0.27,1.14-0.56,1.66-0.87c4.25-2.55,3.53-5.11,3.5-9.33h-1.85c-0.03-0.22-0.07-0.42-0.11-0.62 l-0.01,0c-0.2-0.93-0.53-1.83-1.01-2.63c-0.08-0.14-0.17-0.28-0.26-0.41v-0.62c0.57-2.11,0.72-4.44,0.35-6.6 c-0.41-2.43-1.47-4.71-3.27-6.4c-0.93-0.88-1.97-1.53-3.1-1.98C77.56,29.25,77.3,29.16,77.03,29.08L77.03,29.08z M54.78,37.44 c6.43-7.1,13.86-10.95,19.42-4.64c1.46,0.07,2.77,0.55,3.86,1.58c2.29,2.15,2.65,6.18,1.6,9.38v2.79c0.71,0.47,1.17,1.34,1.37,2.33 c0.14,0.64,0.17,1.35,0.1,2.02c-0.07,0.7-0.24,1.37-0.52,1.92c-0.4,0.79-1,1.34-1.82,1.46c-0.8,0.86-1.59,1.77-2.29,2.65 c-0.77,0.97-1.43,1.88-1.88,2.64c-0.35,0.58-0.24,0.96-0.11,1.39c0.06,0.22,0.13,0.44,0.17,0.68c1.41,0.3,2.68,0.54,3.82,0.76 c7.25,1.36,9.51,1.78,9.51,11.22c0,0.48-0.39,0.87-0.87,0.87H51.17c-0.48,0-0.87-0.39-0.87-0.87c0-9.44,2.25-9.86,9.51-11.22 c1.15-0.22,2.44-0.46,3.85-0.76c0.05-0.19,0.11-0.36,0.17-0.54c0.15-0.41,0.29-0.83-0.14-1.53c-0.46-0.75-1.12-1.67-1.88-2.64 c-0.7-0.88-1.49-1.8-2.29-2.65c-0.82-0.12-1.43-0.67-1.82-1.46c-0.28-0.54-0.45-1.22-0.52-1.92c-0.06-0.67-0.03-1.38,0.1-2.02 c0.21-0.99,0.66-1.86,1.36-2.33l-0.94-0.56C57.44,43.22,58.18,38.37,54.78,37.44L54.78,37.44L54.78,37.44z"/></g></svg>