<?xml version="1.0" encoding="utf-8"?><svg version="1.1" id="Layer_1" xmlns="http://www.w3.org/2000/svg" xmlns:xlink="http://www.w3.org/1999/xlink" x="0px" y="0px" viewBox="0 0 122.88 63.58" style="enable-background:new 0 0 122.88 63.58" xml:space="preserve"><style type="text/css"><![CDATA[
	.st0{fill-rule:evenodd;clip-rule:evenodd;}
]]></style><g><path class="st0" d="M93.62,42.31l1.92-0.05l1.6-0.04c-1.87-5.74-1.24-11.01,3.24-15.49c0.76,2.46,2.47,4.49,5.37,5.99 c1.39,1.03,2.73,2.28,4.03,3.71c0.23-0.95-0.64-2.1-1.71-3.29c0.99,0.49,1.89,1.17,2.54,2.48c0.75,1.52,0.74,2.81,0.49,4.45 c-0.12,0.77-0.3,1.48-0.57,2.14h2.65c2.8-6,1.02-14.9-4.71-18.67c-1.76-1.15-3.02-1.11-5.08-1.11c-2.36,0-3.57,0.07-5.59,1.41 c-2.98,1.97-4.81,5.38-5.58,10.12C92.07,36.33,91.96,40.41,93.62,42.31L93.62,42.31L93.62,42.31z M0,63.58 c0.23-6.48,10.11-6.74,16.17-10.52l4.06,10.52H0L0,63.58z M28.44,60.02h0.8c0.72,0,1.31-0.59,1.31-1.31v-2.12 c0-0.72-0.59-1.31-1.31-1.31H24.5c-0.72,0-1.31,0.59-1.31,1.31v2.12c0,0.72,0.59,1.31,1.31,1.31h0.81l-0.7,3.56h4.51L28.44,60.02 L28.44,60.02L28.44,60.02z M20.15,48.49c0.15-1.23-3.48-5.28-4.15-7.52c-1.42-2.26-1.93-4.61-0.38-7c0.62-0.95,0.36-3.52,0.36-4.83 c0-13,22.78-13.01,22.78,0c0,1.64-0.38,3.78,0.51,5.08c1.49,2.16,0.72,4.75-0.54,6.76c-0.8,2.36-4.61,6.18-4.35,7.52 C34.61,55.16,20.1,54.94,20.15,48.49L20.15,48.49L20.15,48.49z M57.62,45.94l5.7,16.75l2.87-9.94l-1.41-1.53 c-0.64-0.93-0.77-1.73-0.42-2.43c0.76-1.5,2.33-1.23,3.8-1.23c1.54,0,3.45-0.29,3.93,1.64c0.16,0.65-0.04,1.32-0.49,2.02 l-1.41,1.53l2.87,9.94l5.16-16.75c6.71,6.05,20.24,2.51,21.88,17.64H33.94C35.66,47.64,50.85,52.04,57.62,45.94L57.62,45.94 L57.62,45.94z M52.97,23.76c0.03,0.94,0.52,2.18,1.49,3.61l0.02,0.02l0,0l3.19,5.06c1.28,2.03,2.6,4.08,4.26,5.59 c1.57,1.44,3.49,2.42,6.01,2.42c2.74,0.01,4.73-1.01,6.36-2.53c1.7-1.59,3.05-3.78,4.38-5.97l3.58-5.89 c0.73-1.66,0.95-2.67,0.71-3.16c-0.13-0.28-0.63-0.38-1.43-0.34c-0.55,0.16-1.2,0.15-1.96-0.06l1.45-5.56 c-11.23,1.16-17.55-9.35-25.55-1.36l1.06,6.58C55.24,22.44,52.89,21.6,52.97,23.76L52.97,23.76z M83.2,20.67 c0.75,0.23,1.3,0.66,1.63,1.33c0.54,1.08,0.32,2.68-0.69,4.98l0,0c-0.02,0.04-0.04,0.08-0.06,0.12l-3.63,5.97 c-1.41,2.31-2.83,4.63-4.74,6.42c-1.98,1.86-4.44,3.11-7.79,3.09c-3.13-0.01-5.49-1.2-7.42-2.97c-1.86-1.7-3.27-3.88-4.62-6.02 l-3.18-5.06c-1.18-1.76-1.79-3.37-1.83-4.7c-0.02-0.64,0.09-1.21,0.33-1.73c0.25-0.53,0.63-0.99,1.15-1.34 c0.25-0.16,0.54-0.31,0.84-0.42c-0.2-2.73-0.27-6.11-0.13-8.95c0.07-0.69,0.2-1.38,0.39-2.07c0.81-2.91,2.86-5.24,5.38-6.86 c0.89-0.56,1.86-1.04,2.9-1.41c6.12-2.21,14.22-1.01,18.56,3.69c1.77,1.91,2.88,4.45,3.12,7.81L83.2,20.67L83.2,20.67L83.2,20.67z M100.92,53.22l1.43-4.98l-0.7-0.77c-0.32-0.46-0.38-0.87-0.21-1.21c0.38-0.75,1.17-0.61,1.9-0.61c0.77,0,1.72-0.15,1.96,0.82 c0.08,0.32-0.02,0.66-0.24,1.01l-0.7,0.77l1.43,4.98l-2.44,1.93L100.92,53.22L100.92,53.22L100.92,53.22z M113.75,51.49 c-1.09-2.18-2.46-4.03-4.07-5.76c3.02,1.17,6.11,2.32,8.39,3.76c1.45,0.91,2.21,1.6,2.79,2.7c1.25,2.35,1.39,4.45,1.57,7l0.44,4.4 h-17.65c-0.48-2.03-0.74-3.73-1.74-5.98C106.52,54.59,109.78,52.15,113.75,51.49L113.75,51.49L113.75,51.49z M92.1,47.69 c1.69-0.74,3.43-1.38,4.95-1.96c-0.87,0.94-1.67,1.91-2.39,2.94C93.85,48.33,92.99,48,92.1,47.69L92.1,47.69z"/></g></svg>