<svg width="19" height="19" viewBox="0 0 19 19" fill="none" xmlns="http://www.w3.org/2000/svg">
<g id="Social Media Icon Square/LinkedIn">
<g id="Group 73">
<path id="LinkedIn" d="M0.849609 3.31507C0.849609 2.73786 1.05232 2.26167 1.45772 1.8865C1.86312 1.51131 2.39016 1.32373 3.0388 1.32373C3.67587 1.32373 4.1913 1.50842 4.58513 1.87784C4.99053 2.2588 5.19324 2.75518 5.19324 3.36702C5.19324 3.92113 4.99633 4.38288 4.6025 4.7523C4.19711 5.13325 3.66428 5.32373 3.00405 5.32373H2.98668C2.3496 5.32373 1.83417 5.13325 1.44034 4.7523C1.04651 4.37135 0.849609 3.89227 0.849609 3.31507ZM1.07548 18.4666V6.89949H4.93262V18.4666H1.07548ZM7.06969 18.4666H10.9268V12.0077C10.9268 11.6037 10.9732 11.292 11.0658 11.0726C11.228 10.6801 11.4741 10.3482 11.8042 10.077C12.1344 9.80568 12.5484 9.67005 13.0465 9.67005C14.3438 9.67005 14.9925 10.5416 14.9925 12.2848V18.4666H18.8496V11.8345C18.8496 10.126 18.4442 8.83022 17.6334 7.9471C16.8226 7.06399 15.7512 6.62243 14.4191 6.62243C12.9249 6.62243 11.7608 7.26312 10.9268 8.54451V8.57914H10.9095L10.9268 8.54451V6.89949H7.06969C7.09285 7.26889 7.10444 8.41751 7.10444 10.3454C7.10444 12.2732 7.09285 14.9803 7.06969 18.4666Z" fill="#073050"/>
</g>
</g>
</svg>
