<svg xmlns="http://www.w3.org/2000/svg" viewBox="0 0 105.34 122.88" fill="#152640"><defs><style>.a{fill-rule:evenodd;}</style></defs><title>law-book</title><path class="a" d="M17.52,0H102V94.24c-.15,2.63-3.55,2.7-7.23,2.53H16.27a9.24,9.24,0,0,0,0,18.48H98.11v-9.83h7.23v12.49a4.14,4.14,0,0,1-4.13,4.13H16.63C7.48,125.44,0,118,0,108.81V17.52A17.57,17.57,0,0,1,17.52,0ZM39.69,72.5l-.46,5.69H24.62L25,71l-.38-17.34h7.74L32,70.22,32,72h7.25l.42.53Zm28-50.25h0a2.57,2.57,0,0,1,0,3.62l-.54.53,4.27,4.19L60.67,41l-4.15-4.31L43,50.2a2.59,2.59,0,0,1-3.66-3.66L52.91,33l-3.25-3.39,10.2-10.4,3.65,3.59.56-.56a2.57,2.57,0,0,1,3.61,0Zm-8.26-8h0a2,2,0,0,1,0,2.88L47.56,29a2,2,0,0,1-2.88,0h0a2,2,0,0,1,0-2.88l11.9-11.9a2,2,0,0,1,2.88,0ZM76.33,31.11h0a2,2,0,0,1,0,2.88l-11.9,11.9a2,2,0,0,1-2.88,0h0a2,2,0,0,1,0-2.87l11.89-11.9a2,2,0,0,1,2.88,0ZM50.15,59.82a8.84,8.84,0,0,1,5.39,1.43,4.79,4.79,0,0,1,1.9,4.08c0,.5-.06,1.84-.16,4-.1,1.92-.15,3-.15,3.22a1.18,1.18,0,0,0,.13.61.46.46,0,0,0,.4.19,2.52,2.52,0,0,0,.65-.11l.45.38-.64,3.79a6.85,6.85,0,0,1-3.53,1.14,3.37,3.37,0,0,1-2-.76,4.22,4.22,0,0,1-1.31-1.93h-.27a9.29,9.29,0,0,1-3.8,2.73A6.81,6.81,0,0,1,42.65,77a5.55,5.55,0,0,1-1.72-4.31q0-4.22,4.36-4.82l5.39-.72v-.46a2,2,0,0,0-.4-1.4,1.85,1.85,0,0,0-1.38-.42,12.56,12.56,0,0,0-5.51,1.82l-.45-.3-.8-4.67A16.43,16.43,0,0,1,46,60.32a18.18,18.18,0,0,1,4.16-.5ZM48.52,70.68a1.09,1.09,0,0,0-.78.4,1.51,1.51,0,0,0-.25,1c0,1,.47,1.52,1.41,1.52A3.06,3.06,0,0,0,50.68,73V70.37l-2.16.31Zm17.8-7.18,1,7.44h.38l1.44-7,.65-3.64h7.13l.34,3.22,1.18,7.4h.38l1.33-7,.68-3.64h6.07l-5.2,17.91H74.78l-1.63-8.88h-.46l-1.9,8.88H63.55l-4.29-17.8,6.68-.26.38,3.37Z"/></svg>