<svg width="24" height="24" viewBox="0 0 24 24" fill="none" xmlns="http://www.w3.org/2000/svg">
<g clip-path="url(#clip0_419_553)">
<path fill-rule="evenodd" clip-rule="evenodd" d="M3.99108 0H23.2302C23.4341 0.000515233 23.6296 0.0687978 23.7738 0.189935C23.9181 0.311073 23.9994 0.475223 24 0.646537V18.6793C23.9651 19.1832 23.1906 19.1949 22.3533 19.1637H3.70734C2.54908 19.1637 1.60248 19.9587 1.60248 20.9314C1.60248 21.9041 2.54908 22.6991 3.70734 22.6991H22.3533V20.8181H24V23.2089C24 23.6445 23.5767 24 23.058 24H3.78874C1.70482 24.002 0 22.5702 0 20.8201V3.35184C0 1.50794 1.79552 0 3.99108 0ZM4.73302 2.6174H5.3982C5.73777 2.6174 6.01686 2.80687 6.01686 3.03736V16.2162C6.01686 16.4466 5.73777 16.6361 5.3982 16.6361H4.73302C4.39345 16.6361 4.11435 16.4466 4.11435 16.2162V3.03736C4.11668 2.80492 4.39345 2.6174 4.73302 2.6174Z" fill="#F2F2F2"/>
</g>
<defs>
<clipPath id="clip0_419_553">
<rect width="24" height="24" fill="white"/>
</clipPath>
</defs>
</svg>
