<?xml version="1.0" standalone="no"?>
<!DOCTYPE svg PUBLIC "-//W3C//DTD SVG 20010904//EN"
 "http://www.w3.org/TR/2001/REC-SVG-20010904/DTD/svg10.dtd">
<svg version="1.0" xmlns="http://www.w3.org/2000/svg"
 width="671.000000pt" height="705.000000pt" viewBox="0 0 671.000000 705.000000"
 preserveAspectRatio="xMidYMid meet">

<g transform="translate(0.000000,705.000000) scale(0.100000,-0.100000)"
fill="#152640" stroke="none">
<path d="M10 4821 l0 -2231 653 0 653 0 18 114 c9 62 28 155 41 205 l23 91
-464 0 -464 0 0 821 0 820 863 -4 c766 -3 873 -5 957 -20 130 -24 242 -54 314
-83 l60 -24 111 44 c61 25 164 61 230 81 66 20 121 37 123 39 5 6 -110 73
-179 104 -86 39 -185 71 -294 97 l-89 21 64 24 c270 98 479 276 594 506 42 84
78 193 96 287 l13 69 381 -4 c346 -4 391 -6 490 -27 511 -105 832 -396 907
-821 17 -100 17 -259 0 -270 -32 -19 -208 -25 -671 -22 -750 6 -1074 -23
-1411 -123 -687 -205 -1242 -741 -1476 -1428 -237 -698 -141 -1471 258 -2067
527 -787 1464 -1162 2419 -966 567 117 1040 442 1339 919 39 63 141 259 141
272 0 3 -108 5 -240 5 l-239 0 -65 -98 c-164 -249 -359 -420 -621 -547 -216
-105 -406 -155 -675 -176 -242 -19 -505 14 -741 91 -582 191 -1032 673 -1189
1271 -257 985 236 1981 1136 2292 309 107 629 139 1311 129 l342 -5 56 -65
c30 -37 55 -70 55 -74 0 -4 -34 -34 -76 -66 -144 -112 -344 -199 -561 -243
-90 -18 -153 -23 -370 -27 l-263 -4 0 64 c0 63 -16 217 -26 251 -3 10 -15 17
-31 17 -42 0 -263 -48 -338 -73 l-69 -24 3 -89 c6 -219 -73 -409 -238 -567
-158 -151 -392 -253 -662 -289 l-89 -12 -34 -105 c-19 -58 -41 -142 -51 -186
-9 -44 -18 -90 -21 -102 -4 -22 -1 -23 53 -23 84 0 297 26 410 51 310 67 585
205 769 386 80 79 182 220 218 301 l19 42 152 0 151 0 698 -810 699 -810 243
0 c134 0 244 2 244 4 0 3 -317 373 -705 823 l-704 817 117 27 c247 58 463 153
633 281 89 67 94 69 109 51 8 -10 237 -276 508 -591 l494 -572 290 0 c276 0
290 1 276 18 -38 44 -1152 1338 -1225 1423 l-83 96 34 78 34 78 104 37 c394
141 665 369 824 695 90 186 134 384 134 610 0 653 -387 1144 -1055 1337 -264
76 -418 88 -1167 88 l-608 0 0 -214 0 -215 688 -4 c652 -3 692 -5 782 -25 248
-54 421 -132 572 -257 144 -118 254 -295 299 -480 32 -130 32 -334 0 -460 -59
-232 -188 -410 -395 -546 -49 -33 -93 -59 -96 -59 -4 0 -10 40 -13 90 -12 157
-55 324 -122 465 -120 252 -353 478 -631 610 -183 87 -422 151 -653 175 -57 5
-258 10 -447 10 l-343 0 -11 43 c-62 238 -184 426 -370 566 -188 141 -406 226
-710 277 -94 16 -212 18 -1162 21 l-1058 4 0 -2230z m1982 1809 c315 -26 542
-115 703 -275 147 -146 202 -296 192 -524 -8 -206 -67 -350 -197 -481 -145
-145 -334 -230 -630 -281 -43 -7 -329 -13 -827 -16 l-763 -4 0 795 0 796 703
0 c386 0 755 -5 819 -10z"/>
</g>
</svg>
