<svg width="16" height="19" viewBox="0 0 16 19" fill="none" xmlns="http://www.w3.org/2000/svg">
<path d="M14.8608 8.65577C14.8608 14.0346 9.35161 17.3484 8.20672 17.9795C8.1433 18.0145 8.07205 18.0329 7.99961 18.0329C7.92718 18.0329 7.85593 18.0145 7.79251 17.9795C6.64676 17.3484 1.13928 14.0346 1.13928 8.65577C1.13928 4.36779 3.71207 1.36621 8.00004 1.36621C12.288 1.36621 14.8608 4.36779 14.8608 8.65577Z" stroke="#170F49" stroke-width="1.4" stroke-linecap="round" stroke-linejoin="round"/>
<path d="M4.5697 8.22677C4.5697 9.13656 4.93112 10.0091 5.57444 10.6524C6.21776 11.2957 7.09029 11.6571 8.00008 11.6571C8.90988 11.6571 9.78241 11.2957 10.4257 10.6524C11.069 10.0091 11.4305 9.13656 11.4305 8.22677C11.4305 7.31697 11.069 6.44444 10.4257 5.80112C9.78241 5.1578 8.90988 4.79639 8.00008 4.79639C7.09029 4.79639 6.21776 5.1578 5.57444 5.80112C4.93112 6.44444 4.5697 7.31697 4.5697 8.22677V8.22677Z" stroke="#170F49" stroke-width="1.4" stroke-linecap="round" stroke-linejoin="round"/>
</svg>
