<svg xmlns:dc="http://purl.org/dc/elements/1.1/" xmlns:cc="http://creativecommons.org/ns#" xmlns:rdf="http://www.w3.org/1999/02/22-rdf-syntax-ns#" xmlns:svg="http://www.w3.org/2000/svg" xmlns="http://www.w3.org/2000/svg" xmlns:sodipodi="http://sodipodi.sourceforge.net/DTD/sodipodi-0.dtd" xmlns:inkscape="http://www.inkscape.org/namespaces/inkscape" version="1.1" x="0px" y="0px" viewBox="0 0 100 125"><g transform="translate(0,-952.36218)"><path d="m 65.51341,994.34929 -15.5282,-21.4541 -15.3959,21.2715 c -0.4262,0.5472 -0.6699,0.7229 -1.1916,0.7229 l -7.7225,0 c -0.9917,0 -1.2545,-0.8161 -0.81,-1.586 l 24.31,-33.6 c 0.463,-0.463 1.1726,-0.4477 1.6203,0 l 24.31,33.6 c 0.4864,0.8424 -0.1019,1.586 -0.8103,1.586 l -7.7262,0 c -0.4891,0 -0.8087,-0.2057 -1.0556,-0.5403 z m -37.88,-1.4597 5.4112,0 16.1306,-22.2863 c 0.4055,-0.4869 1.1602,-0.4598 1.62,0 l 16.1306,22.2863 5.4116,0 -22.3522,-30.8941 z" style="text-indent:0;text-transform:none;direction:ltr;block-progression:tb;baseline-shift:baseline;color:#000000;enable-background:accumulate;" fill="#000000" fill-opacity="1" fill-rule="evenodd" stroke="none" marker="none" visibility="visible" display="inline" overflow="visible"/><path d="m 49.17521,1044.9346 -24.31,-33.6 c -0.5301,-0.7427 0.0468,-1.5862 0.81,-1.5862 l 7.7285,0 c 0.5164,-0.01 0.87,0.3067 1.1871,0.725 l 15.3944,21.279 15.53,-21.4659 c 0.3439,-0.4157 0.618,-0.5384 1.0575,-0.5384 l 7.7225,0 c 0.9129,0 1.3559,0.7947 0.8103,1.5862 l -24.31,33.6 c -0.4185,0.5744 -1.1944,0.5669 -1.6203,0 z m 0.81,-2.2919 22.3525,-30.8943 -5.4115,0 -16.1307,22.2962 c -0.348,0.4852 -1.2383,0.5168 -1.6203,0 l -16.1306,-22.2962 -5.4116,0 z" style="text-indent:0;text-transform:none;direction:ltr;block-progression:tb;baseline-shift:baseline;color:#000000;enable-background:accumulate;" fill="#000000" fill-opacity="1" fill-rule="evenodd" stroke="none" marker="none" visibility="visible" display="inline" overflow="visible"/></g></svg>