<svg width="24" height="24" viewBox="0 0 24 24" fill="none" xmlns="http://www.w3.org/2000/svg">
<g clip-path="url(#clip0_419_561)">
<g clip-path="url(#clip1_419_561)">
<path d="M11.1133 12.0012H12.8867C13.1465 12.0012 13.3848 12.1301 13.5547 12.3402C13.7266 12.5503 13.832 12.8392 13.832 13.1567V17.7261C13.832 18.0436 13.7266 18.3324 13.5547 18.5425C13.3828 18.7526 13.1465 18.8815 12.8867 18.8815H11.1133C10.8535 18.8815 10.6172 18.7526 10.4453 18.5425C10.2734 18.3324 10.168 18.0436 10.168 17.7261V13.1591C10.168 12.8415 10.2734 12.5503 10.4453 12.3426C10.6172 12.1325 10.8535 12.0012 11.1133 12.0012ZM1.36133 3.33274H7.51367V1.17935C7.51367 0.85467 7.62109 0.561027 7.79687 0.346165C7.9707 0.131304 8.21289 0 8.47852 0H15.5215C15.7871 0 16.0273 0.131304 16.2031 0.346165C16.377 0.558639 16.4863 0.85467 16.4863 1.17935V3.33512H22.6387C23.0137 3.33512 23.3535 3.52134 23.6016 3.82453C23.8477 4.12534 24.002 4.54312 24.002 5.00149V22.3384C24.002 22.7968 23.8496 23.2122 23.6016 23.5154C23.3555 23.8162 23.0137 24.0048 22.6387 24.0048H1.36133C0.986328 24.0048 0.646484 23.8186 0.398438 23.5154C0.152344 23.2098 0 22.7944 0 22.336V4.9991C0 4.54073 0.152344 4.12534 0.400391 3.82214C0.646484 3.52134 0.986328 3.33274 1.36133 3.33274ZM15.5215 1.03372H8.47852C8.44531 1.03372 8.41602 1.05043 8.39453 1.07669C8.37305 1.10295 8.35938 1.13876 8.35938 1.17935V3.31125H15.6406V1.17935C15.6406 1.13876 15.627 1.10295 15.6055 1.07669C15.584 1.04805 15.5547 1.03372 15.5215 1.03372ZM0.84375 13.2808C3.95508 14.3742 6.25586 14.8445 9.36914 15.0212V16.0549C6.25781 15.8806 3.95703 15.4223 0.84375 14.3503V22.3336C0.84375 22.5079 0.902344 22.6655 0.996094 22.7801C1.08984 22.8947 1.21875 22.9663 1.36133 22.9663H22.6367C22.7793 22.9663 22.9082 22.8947 23.002 22.7801C23.0957 22.6655 23.1543 22.5079 23.1543 22.3336V14.3527C20.0469 15.4223 17.8848 15.8806 14.7793 16.0549V15.0212C17.8867 14.8421 20.0488 14.3718 23.1543 13.2808V4.9991C23.1543 4.82483 23.0957 4.66726 23.002 4.55267C22.9082 4.43808 22.7793 4.36646 22.6367 4.36646H1.36133C1.21875 4.36646 1.08984 4.43808 0.996094 4.55267C0.902344 4.66726 0.84375 4.82483 0.84375 4.9991V13.2808ZM12.8867 13.0349H11.1133C11.0859 13.0349 11.0605 13.0492 11.043 13.0707C11.0254 13.0922 11.0137 13.1232 11.0137 13.1567V17.7261C11.0137 17.7595 11.0254 17.7905 11.043 17.812C11.0605 17.8359 11.0859 17.8478 11.1133 17.8478H12.8867C12.9141 17.8478 12.9395 17.8335 12.957 17.812C12.9746 17.7905 12.9863 17.7595 12.9863 17.7261V13.1591C12.9863 13.1256 12.9746 13.0946 12.957 13.0731C12.9395 13.0492 12.9141 13.0349 12.8867 13.0349Z" fill="white"/>
</g>
</g>
<defs>
<clipPath id="clip0_419_561">
<rect width="24" height="24" fill="white"/>
</clipPath>
<clipPath id="clip1_419_561">
<rect width="24" height="24" fill="white"/>
</clipPath>
</defs>
</svg>
