<?xml version="1.0" encoding="utf-8"?><svg version="1.1" id="Layer_1" xmlns="http://www.w3.org/2000/svg" xmlns:xlink="http://www.w3.org/1999/xlink" x="0px" y="0px" viewBox="0 0 122.88 100.54" style="enable-background:new 0 0 122.88 100.54" xml:space="preserve"><g><path d="M65.98,54.6H56.9c-0.15,0-0.27,0.06-0.37,0.15c-0.1,0.1-0.15,0.23-0.15,0.37v19.14c0,0.15,0.06,0.27,0.15,0.37 c0.1,0.1,0.23,0.15,0.37,0.15h9.07c0.15,0,0.27-0.06,0.37-0.15c0.1-0.1,0.15-0.23,0.15-0.37V55.12c0-0.15-0.06-0.27-0.15-0.37 C66.25,54.64,66.12,54.6,65.98,54.6L65.98,54.6L65.98,54.6z M6.98,13.97h31.49V4.94c0-1.37,0.56-2.6,1.45-3.49 C40.82,0.56,42.06,0,43.41,0h36.06c1.37,0,2.59,0.56,3.49,1.45c0.89,0.89,1.45,2.14,1.45,3.49v9.03h31.49 c1.93,0,3.67,0.79,4.92,2.06c1.27,1.27,2.06,3.01,2.06,4.92v16.86c-7.89,5.41-16.03,10.02-24.42,13.78 c-8.44,3.78-17.14,6.71-26.14,8.73v-6.74c0-1.54-0.63-2.96-1.64-3.98c-1.01-1.01-2.43-1.64-3.98-1.64H56.17l0,0 c-1.54,0-2.96,0.63-3.98,1.64c-1.01,1.01-1.64,2.43-1.64,3.98v6.59c-8.76-2.01-17.25-4.89-25.48-8.58 C16.45,47.73,8.1,42.96,0,37.36V20.95c0-1.93,0.79-3.67,2.06-4.92C3.32,14.76,5.07,13.97,6.98,13.97L6.98,13.97L6.98,13.97z M122.88,47.81v45.76c0,1.93-0.79,3.67-2.06,4.92c-1.27,1.27-3.01,2.06-4.92,2.06H6.98c-1.93,0-3.67-0.79-4.92-2.06 C0.79,97.22,0,95.48,0,93.57V47.39c6.89,4.42,13.98,8.28,21.27,11.55c9.41,4.22,19.17,7.45,29.29,9.61v7.25 c0,1.54,0.63,2.96,1.64,3.98c1.01,1.01,2.44,1.64,3.98,1.64h10.53c1.54,0,2.96-0.63,3.98-1.64c1.01-1.01,1.64-2.43,1.64-3.98v-7.6 l0.11,0.46c10.31-2.17,20.25-5.43,29.83-9.73C109.33,55.77,116.2,52.05,122.88,47.81L122.88,47.81z M75.71,6.73H47.19 c-0.17,0-0.31,0.06-0.44,0.19c-0.1,0.1-0.19,0.27-0.19,0.44v6.42h29.75V7.36c0-0.17-0.06-0.31-0.19-0.44 c-0.1-0.1-0.27-0.19-0.44-0.19H75.71L75.71,6.73z"/></g></svg>