<svg width="24" height="24" viewBox="0 0 24 24" fill="none" xmlns="http://www.w3.org/2000/svg">
<path fill-rule="evenodd" clip-rule="evenodd" d="M5.2837 11.1328H18.791V7.29297H14.4877C14.036 7.29297 13.4072 7.06445 13.1095 6.78516C12.8118 6.50586 12.6307 6.00195 12.6307 5.58008V1.49219H1.69661C1.65914 1.49219 1.62999 1.50977 1.61125 1.52734C1.58002 1.54688 1.5717 1.57227 1.5717 1.60938V22.4004C1.5717 22.4277 1.59043 22.4629 1.60917 22.4805C1.62791 22.5078 1.66746 22.5156 1.69453 22.5156C6.43707 22.5156 13.7882 22.5156 18.664 22.5156C18.7015 22.5156 18.6994 22.498 18.7202 22.4805C18.7493 22.4629 18.7889 22.4258 18.7889 22.4004V20.2207H5.2837C4.4218 20.2207 3.70979 19.5566 3.70979 18.7441V12.6074C3.70979 11.7969 4.41764 11.1328 5.2837 11.1328ZM6.14144 13.1641H8.88745C9.48495 13.1641 9.93256 13.2969 10.2323 13.5645C10.5301 13.832 10.6779 14.2109 10.6779 14.7051C10.6779 15.2109 10.5155 15.6074 10.1907 15.8926C9.86594 16.1777 9.37045 16.3203 8.70424 16.3203H7.79862V18.1738H6.14144V13.1641ZM7.79654 15.3066H8.20251C8.52312 15.3066 8.74796 15.2539 8.87704 15.1504C9.00612 15.0469 9.07066 14.9141 9.07066 14.752C9.07066 14.5938 9.01444 14.4609 8.90202 14.3516C8.7896 14.2422 8.57933 14.1875 8.26705 14.1875H7.79446V15.3066H7.79654ZM11.4482 13.1641H13.9006C14.3836 13.1641 14.775 13.2266 15.0727 13.3477C15.3704 13.4707 15.6161 13.6465 15.8118 13.877C16.0054 14.1074 16.147 14.375 16.2323 14.6797C16.3198 14.9844 16.3635 15.3086 16.3635 15.6504C16.3635 16.1855 16.299 16.6016 16.1678 16.8965C16.0387 17.1914 15.8576 17.4395 15.6265 17.6387C15.3954 17.8379 15.1477 17.9707 14.8833 18.0371C14.521 18.1289 14.1942 18.1738 13.9006 18.1738H11.4482V13.1641ZM13.0949 14.2988V17.0352H13.5009C13.8465 17.0352 14.0922 16.998 14.24 16.9277C14.3857 16.8555 14.5002 16.7305 14.5835 16.5527C14.6668 16.373 14.7084 16.084 14.7084 15.6836C14.7084 15.1523 14.6168 14.791 14.4315 14.5938C14.2462 14.3984 13.9402 14.3008 13.5113 14.3008H13.0949V14.2988ZM17.1234 13.1641H21.2039V14.2422H18.7806V15.1172H20.8541V16.1328H18.7806V18.1758H17.1255V13.1641H17.1234ZM20.3587 11.1328H22.426C23.292 11.1328 23.9999 11.7988 23.9999 12.6094V18.7461C23.9999 19.5566 23.2899 20.2227 22.426 20.2227H20.3587V22.8691C20.3587 23.1836 20.2233 23.4629 20.0047 23.6699C19.784 23.877 19.4863 24.002 19.1512 24.002C13.0221 24.002 7.36975 24.002 1.20945 24.002C0.874264 24.002 0.576554 23.877 0.355874 23.6699C0.135194 23.4629 0.00195312 23.1836 0.00195312 22.8691V1.14258C0.00195312 0.828125 0.137276 0.548828 0.355874 0.341797C0.576554 0.134766 0.882591 0.00976562 1.20945 0.00976562H13.4343C13.4614 0 13.4905 0 13.5196 0C13.6529 0 13.7882 0.0546875 13.884 0.134766H13.9027C13.9215 0.144531 13.9319 0.152344 13.9506 0.169922L20.1942 6.09961C20.3004 6.19922 20.3774 6.33398 20.3774 6.48633C20.3774 6.53125 20.367 6.56641 20.3587 6.61328V11.1328ZM14.0568 5.46289V1.74609L18.5183 5.98438H14.6126C14.4586 5.98438 14.3253 5.92188 14.2192 5.83203C14.1234 5.74219 14.0568 5.60742 14.0568 5.46289Z" fill="black"/>
</svg>
