<svg xmlns="http://www.w3.org/2000/svg" shape-rendering="geometricPrecision" text-rendering="geometricPrecision" image-rendering="optimizeQuality" fill-rule="evenodd" clip-rule="evenodd" viewBox="0 0 512 335.09"><path fill-rule="nonzero" d="M252 223.98c12.02-.99 20.25-7.75 25.85-17.5l.04-.07c5.67-9.89 8.68-22.89 10.19-36.11.79-6.99 1.26-14.3 1.74-21.7 2.35-36.56 4.9-76.02 46.42-92.81a70.634 70.634 0 0 1 19.66-4.81c14.35-1.4 29 1.55 41.64 8.79 12.65 7.24 23.3 18.77 29.66 34.48 2.92 7.23 4.93 15.34 5.81 24.32v.16c-.12 22.05 3.41 53.02 12.99 75.74 6.9 16.34 16.92 28.37 30.93 29.51.57.04 1 .55.96 1.12l-.06.27c-2.6 7.34-14.6 12.99-28.95 15.74 21.34 5.19 36.15 11.45 46.18 22.5C507.4 277.2 512 297.44 512 331.06c0 2.22-1.8 4.02-4.02 4.02H340.75c.28-1.38.44-2.81.44-4.28v-13.99c0-12.25-3.13-24.11-8.54-34.95 10.16 4.16 20.36 6.46 30.57 6.77 26.58.8 53.74-11.89 81.55-40.27-4.04-.95-8.34-1.87-12.89-2.78l-.65-.14c-3.89-.77-9.37-1.86-15.02-3.43-1.95-.3-3.84-.66-5.66-1.11-5.66-1.37-10.65-3.48-14.38-6.41-5.7-4.46-8.53-10.76-6.63-19.19-17.06 10.65-34.98 10.61-51.95-.36l-1.09-.61c-.09 5-3.26 19.8-8.1 22.75-7.36 4.47-18.91 6.56-27.93 8.04-11.14-7.78-23.71-13.33-36.61-15.82-4.1-.79-8.22-1.59-12.17-2.52-.23-.46-.44-.93-.61-1.41-.19-.55.1-1.15.64-1.34l.28-.05zm-56.14-21.31c.21-.25.44-.47.7-.67l1.48-1.4c10.95-10.28 19.02-17.86 17.46-36.34-.05-.92.17-1.87.71-2.69a4.268 4.268 0 0 1 5.9-1.22c.76.5 1.53.9 2.31 1.18.64.24 1.26.38 1.83.41 1.11.06 1.68.06 1.83.02.15-.12.43-.86.83-2l5.44-15.4c.68-2.61.74-4.47.34-5.71-.17-.54-.46-.94-.83-1.18l-.16-.09c-.66-.35-1.6-.47-2.68-.38-2.39.18-5.18 1.33-7.66 3.21-.9.68-2.08 1.01-3.29.8a4.284 4.284 0 0 1-3.5-4.93c4.03-23.5 2.19-38.8-2.82-49.24-4.38-9.15-11.38-14.7-18.96-18.84-16.83 12.9-28.68 14.37-40.49 15.83-9.78 1.2-19.54 2.42-32.46 11.35-6.15 4.26-10.23 9.4-12.32 15.39-2.1 6.03-2.26 13.03-.56 20.95.26.86.25 1.8-.08 2.7-.81 2.22-3.27 3.35-5.49 2.54-1.28-.47-2.61-1.01-3.9-1.42-5.05-1.76-8.63-2.58-10.01.6-.11 1.01-.18 2.58-.23 4.2v.03c-.06 2.3-.06 4.71 0 5.96v.06c.15 2.96.8 6.88 2.22 10.17.89 2.08 2.07 3.83 3.54 4.67.73.41 1.56.6 2.42.61 1.06.02 2.24-.2 3.48-.57a4.273 4.273 0 0 1 5.66 3.93c.46 19.35 9.05 26.75 19.49 35.74l4.35 3.78c6.86 6.1 13.96 10.28 21.08 12.43 5.48 1.14 11.21 1.26 16.71.55 3.83-.5 7.52-1.4 10.94-2.63 4.94-2.33 9.79-5.74 14.48-10.27l2.24-2.13zm8.09 4.1c8.99 30 33.07 34.68 56.71 39.24 32.07 6.2 63.48 36.49 63.48 70.8v13.99c0 2.36-1.93 4.29-4.28 4.29H4.28c-2.36 0-4.28-1.93-4.28-4.29v-12.65c0-41.24 33.35-65.6 67.05-70.11 24.59-3.28 49.4-6.62 58.16-36.5l-.48-.43-4.26-3.72c-11.1-9.56-20.39-17.56-22.16-37.03l-.98.01c-2.27-.03-4.47-.55-6.53-1.72-3.31-1.88-5.63-5.09-7.19-8.71-1.86-4.31-2.69-9.33-2.89-13.12v-.08c-.06-1.39-.06-4.05 0-6.6v-.04c.07-2.21.18-4.36.35-5.58.05-.37.15-.71.28-1.04 2.33-6.48 5.89-8.58 10.59-8.45l-3.09-2.05c-1.68-20.97 3.23-57.35-19.54-64.23 43.08-53.24 92.73-82.19 130.02-34.84 44.92 2.36 62.93 73.74 27.11 103.79l-.21 1.76c1.41-.42 2.81-.69 4.15-.79 2.66-.21 5.19.22 7.33 1.35l.41.25c2.16 1.27 3.82 3.25 4.7 5.97.89 2.77.92 6.32-.25 10.66l-5.6 15.9c-.9 2.57-1.73 4.38-3.55 5.83l-.35.25c-1.8 1.28-3.99 1.76-7.25 1.59l-1.56-.17c-.36 17.68-9 25.84-20.31 36.47zm-6.42 6.75c-13.09 18.08-51.29 18.47-65.56 4.12-3.56 14.83-12.8 25.08-26.47 31.75 39.2 23.9 77.83 23.19 115.85-5.01-14.62-6.63-22.01-17.22-23.82-30.86zm198.82-13.45c18.17-20.1 23.01-33.65 20.61-60.73-.39-4.33-1.03-8.73-1.92-13.19-14.82-6.87-24.52-21.97-29.48-44.66-5.93 43.2-58.98 41.34-72.32 49.2 0 3.64-.09 7.07-.17 10.37-.61 22.23 1.04 34.06 12.23 51.81 1.87 2.97 3.7 5.84 5.91 8.22 17.82 19.22 48.29 16.82 65.14-1.02z"/></svg>