<svg width="24" height="24" viewBox="0 0 24 24" fill="none" xmlns="http://www.w3.org/2000/svg">
<g clip-path="url(#clip0_430_1458)">
<path fill-rule="evenodd" clip-rule="evenodd" d="M0 23.9998V20.2574C1.39062 19.4607 6.83203 17.7039 7.17578 15.467C7.33008 14.4591 6.97656 13.974 6.58984 13.1798L5.3457 10.6288C5.05469 10.0281 4.83594 9.81445 4.8418 9.07553C4.8457 8.65831 4.85156 8.24863 4.89844 7.84901C4.95703 7.3388 5.00586 7.32121 5.21484 6.91153C5.35547 6.63506 5.33789 6.55212 5.33789 5.91624V4.33283C5.33789 2.50311 5.86133 1.35702 6.74414 0.708577C8.03711 -0.24147 10.6582 -0.24147 11.9434 0.728684C12.8105 1.38216 13.3223 2.52322 13.3223 4.33283V5.91624C13.3223 6.62752 13.3027 6.64763 13.5039 7.0196C13.6562 7.30361 13.6895 7.33629 13.7422 7.68313C13.8086 8.13805 13.8145 8.6005 13.8184 9.07553C13.8262 9.81445 13.6074 10.0281 13.3164 10.6288L14.2188 11.3551L14.3691 11.0736C14.6699 10.5107 14.877 10.1211 14.8848 9.20371C14.8887 9.15847 14.8887 9.11071 14.8887 9.06296H14.8848C14.8828 8.78649 14.8789 8.51505 14.8691 8.2989C14.8555 8.00735 14.834 7.7158 14.791 7.42677C14.7109 6.88891 14.6523 6.74565 14.4766 6.4164C14.4609 6.38121 14.4434 6.34854 14.4258 6.31335L14.4023 6.27063L14.3867 6.24047L14.3848 6.23544H14.3828C14.3828 6.2279 14.3906 6.21785 14.3906 6.08966V5.91624H14.3945V4.33283C14.3945 3.80251 14.3555 3.31241 14.2832 2.85749C16.7793 0.67339 20.2266 2.83236 20.9355 9.34194C21.6172 15.6102 24.5391 15.3866 19.9785 15.3866H18.1582C18.1523 16.9825 17.957 17.7994 19.2441 18.6941C20.5293 19.5889 24 20.0488 24 22.3159V23.7686C24 23.8842 23.9258 23.9797 23.834 23.9797H19.2695V19.7874C19.2695 18.3423 17.7129 18.0708 16.8926 17.7441C16.1426 17.4475 15.2578 17.0956 14.4844 16.7237C14.502 16.3316 14.4766 15.8943 14.4746 15.3866H12.6016C12.5703 15.3237 12.5488 15.2634 12.541 15.2031C12.4961 14.909 12.6094 14.6501 12.7676 14.3335C12.7852 14.3033 12.8047 14.2706 12.8203 14.2354L12.7871 14.2078L12.8203 14.2329L12.9414 13.9891L12.9844 13.9087L12.9824 13.9062L14.1797 11.4481L14.2285 11.3576L13.3223 10.6263L12.0781 13.1773C11.6914 13.9715 11.3379 14.4591 11.4922 15.4645C11.834 17.7014 16.8125 18.9605 18.2031 19.7573V23.9948L0 23.9998Z" fill="#F2F2F2"/>
</g>
<defs>
<clipPath id="clip0_430_1458">
<rect width="24" height="24" fill="white"/>
</clipPath>
</defs>
</svg>
