<svg width="20" height="20" viewBox="0 0 20 20" fill="none" xmlns="http://www.w3.org/2000/svg">
<path d="M12.2515 17.3851L12.2606 17.3915C13.0477 17.8926 13.9822 18.1102 14.9096 18.0084C15.8371 17.9065 16.702 17.4913 17.3616 16.8313L17.9345 16.2584C18.0615 16.1315 18.1622 15.9808 18.2309 15.815C18.2996 15.6492 18.335 15.4714 18.335 15.2919C18.335 15.1124 18.2996 14.9347 18.2309 14.7688C18.1622 14.603 18.0615 14.4524 17.9345 14.3255L15.518 11.9107C15.3911 11.7838 15.2404 11.683 15.0746 11.6143C14.9088 11.5456 14.731 11.5102 14.5515 11.5102C14.372 11.5102 14.1943 11.5456 14.0284 11.6143C13.8626 11.683 13.712 11.7838 13.5851 11.9107C13.3288 12.1669 12.9814 12.3108 12.6191 12.3108C12.2568 12.3108 11.9093 12.1669 11.6531 11.9107L7.78914 8.04586C7.53299 7.78963 7.3891 7.44217 7.3891 7.07987C7.3891 6.71757 7.53299 6.3701 7.78914 6.11388C7.9161 5.987 8.01682 5.83633 8.08554 5.67051C8.15426 5.50468 8.18963 5.32694 8.18963 5.14744C8.18963 4.96794 8.15426 4.79019 8.08554 4.62437C8.01682 4.45854 7.9161 4.30788 7.78914 4.18099L5.37348 1.76625C5.11726 1.51011 4.76979 1.36621 4.40749 1.36621C4.04519 1.36621 3.69773 1.51011 3.44151 1.76625L2.86765 2.33919C2.2078 2.99883 1.79274 3.86385 1.69105 4.79131C1.58936 5.71878 1.80713 6.65318 2.30837 7.44012L2.31384 7.44923C4.96102 11.3658 8.33446 14.7386 12.2515 17.3851V17.3851Z" stroke="#170F49" stroke-width="1.4" stroke-linecap="round" stroke-linejoin="round"/>
</svg>
