<?xml version="1.0" standalone="no"?>
<!DOCTYPE svg PUBLIC "-//W3C//DTD SVG 20010904//EN"
 "http://www.w3.org/TR/2001/REC-SVG-20010904/DTD/svg10.dtd">
<svg version="1.0" xmlns="http://www.w3.org/2000/svg"
 width="36.000000pt" height="36.000000pt" viewBox="0 0 36.000000 36.000000"
 preserveAspectRatio="xMidYMid meet">

<g transform="translate(0.000000,36.000000) scale(0.100000,-0.100000)"
fill="#152640" stroke="none">
<path d="M172 325 c0 -16 2 -22 5 -12 2 9 2 23 0 30 -3 6 -5 -1 -5 -18z"/>
<path d="M192 325 c0 -16 2 -22 5 -12 2 9 2 23 0 30 -3 6 -5 -1 -5 -18z"/>
<path d="M222 325 c0 -16 2 -22 5 -12 2 9 2 23 0 30 -3 6 -5 -1 -5 -18z"/>
<path d="M133 285 l2 -40 48 -3 c45 -3 47 -2 47 22 0 21 -5 26 -24 26 -20 0
-23 -4 -19 -21 6 -20 5 -20 -19 3 -14 13 -28 30 -31 38 -3 8 -5 -3 -4 -25z"/>
<path d="M83 303 c9 -2 23 -2 30 0 6 3 -1 5 -18 5 -16 0 -22 -2 -12 -5z"/>
<path d="M253 303 c9 -2 23 -2 30 0 6 3 -1 5 -18 5 -16 0 -22 -2 -12 -5z"/>
<path d="M20 233 c-23 -62 -23 -91 1 -106 21 -13 65 -1 73 20 7 17 -34 143
-46 143 -3 0 -16 -25 -28 -57z m40 12 c5 -14 13 -37 16 -50 6 -23 3 -25 -29
-25 l-35 0 16 50 c9 28 17 50 19 50 2 0 8 -11 13 -25z"/>
<path d="M282 227 c-25 -71 -22 -94 16 -104 30 -7 56 7 60 34 3 22 -35 133
-46 133 -4 0 -17 -29 -30 -63z m51 -9 l16 -48 -36 0 c-32 0 -35 2 -29 25 9 36
26 78 30 74 2 -2 10 -25 19 -51z"/>
<path d="M145 220 c-11 -19 6 -30 46 -30 32 0 39 3 39 20 0 17 -7 20 -39 20
-22 0 -43 -4 -46 -10z"/>
<path d="M150 115 l0 -65 35 0 35 0 0 65 0 65 -35 0 -35 0 0 -65z"/>
<path d="M130 25 c0 -13 10 -15 55 -13 30 2 55 8 55 13 0 6 -25 11 -55 13 -45
2 -55 0 -55 -13z"/>
</g>
</svg>
