<?xml version="1.0" encoding="utf-8"?><svg version="1.1" id="Layer_1" xmlns="http://www.w3.org/2000/svg" xmlns:xlink="http://www.w3.org/1999/xlink" x="0px" y="0px" viewBox="0 0 102.74 122.88" style="enable-background:new 0 0 102.74 122.88" xml:space="preserve"><style type="text/css">.st0{fill-rule:evenodd;clip-rule:evenodd;}</style><g><path class="st0" d="M51.31,103.57c2.96,0,5.35,2.4,5.35,5.35c0,2.96-2.4,5.35-5.35,5.35c-2.96,0-5.35-2.4-5.35-5.35 C45.96,105.96,48.36,103.57,51.31,103.57L51.31,103.57z M31.25,37.01c-1.11,0.04-1.96,0.27-2.54,0.66 c-0.33,0.22-0.57,0.5-0.73,0.84c-0.17,0.37-0.25,0.83-0.24,1.35c0.04,1.53,0.85,3.53,2.4,5.83l0.02,0.03l0,0l5.03,8 c2.02,3.21,4.13,6.48,6.76,8.88c2.53,2.31,5.59,3.87,9.65,3.88c4.39,0.01,7.6-1.61,10.21-4.05c2.71-2.54,4.85-6.02,6.96-9.49 l5.67-9.33c1.06-2.41,1.44-4.02,1.2-4.97c-0.14-0.56-0.76-0.84-1.82-0.89c-0.22-0.01-0.46-0.01-0.69-0.01 c-0.25,0.01-0.52,0.02-0.79,0.05c-0.15,0.01-0.3,0-0.44-0.03c-0.5,0.03-1.02-0.01-1.55-0.08l1.94-8.59 c-14.4,2.27-25.17-8.42-40.39-2.14l1.1,10.12C32.37,37.11,31.78,37.09,31.25,37.01L31.25,37.01L31.25,37.01z M75.73,35.2 c1.39,0.42,2.29,1.31,2.65,2.74c0.4,1.59-0.03,3.82-1.38,6.87l0,0c-0.02,0.06-0.05,0.11-0.08,0.16l-5.73,9.44 c-2.21,3.64-4.45,7.29-7.45,10.09l-0.15,0.13c0.29,0.41,0.6,0.87,0.92,1.34c0.99,1.46,2.13,3.12,3.18,4.42 c6.23,3.87,19.93,4.92,25.29,7.9c13.64,7.6,8.66,26.07,9.65,39.36c-0.29,3.14-2.07,4.94-5.58,5.21h-3.79l4.15-31.5 c0.32-2.45-1.42-4.46-3.56-4.46h-29.2c0.72-5.15,1.25-10.07,1.49-13.78c-1.36-1.52-2.82-3.65-4.07-5.49 c-0.28-0.41-0.55-0.8-0.8-1.17c-2.63,1.77-5.76,2.86-9.68,2.85c-4.37-0.01-7.77-1.51-10.6-3.8c-0.79,2.37-1.96,5.63-3.08,7.18 c-0.1,0.14-0.22,0.26-0.35,0.35c0.48,3.84,1.15,8.76,1.94,13.86H9.58c-2.14,0-3.89,2.01-3.56,4.46l4.15,31.5H6.38 c-3.5-0.27-5.28-2.07-5.57-5.21c0.17-14.07-5.17-31.1,9.65-39.36c5.43-3.03,19.42-4.06,25.53-8.06c0.93-1.75,1.97-4.9,2.59-6.78 c0.07-0.21-0.05,0.14,0.06-0.18c-2.24-2.41-4.08-5.26-5.84-8.06l-5.03-8c-1.84-2.74-2.8-5.25-2.85-7.31 c-0.03-0.97,0.14-1.85,0.49-2.62c0.38-0.81,0.95-1.49,1.73-2.01c0.36-0.25,0.77-0.45,1.22-0.62c-0.33-4.34-0.45-9.8-0.24-14.38 c0.11-1.09,0.32-2.17,0.62-3.26c1.84-6.58,7.5-11.32,13.96-13.55c3.13-1.08,1.92-3.66,5.09-3.49c7.51,0.41,19.09,5.25,23.54,10.38 C77.55,17.58,75.95,26.43,75.73,35.2L75.73,35.2L75.73,35.2z M41.36,79.19c-2.54-2.89-2.75-5.91,0-9.11 c3.18,0.8,6.1,2.18,8.78,4.04c0.58-0.25,1.25-0.36,1.91-0.31c2.79-1.98,6.35-2.77,9.46-4.26c3.71,3.62,3.32,6.94-0.34,10.04 c-2.04-0.47-3.98-1.19-5.84-2.13c-0.05,0.48-0.18,1-0.4,1.57l0.95,7.89h-7.58l0.95-7.89c-0.59-1-0.82-1.86-0.8-2.57 C46.25,77.78,43.86,78.62,41.36,79.19L41.36,79.19z"/></g></svg>