<?xml version="1.0" encoding="utf-8"?><svg version="1.1" id="Layer_1" xmlns="http://www.w3.org/2000/svg" xmlns:xlink="http://www.w3.org/1999/xlink" x="0px" y="0px" viewBox="0 0 122.88 120.26" style="enable-background:new 0 0 122.88 120.26" xml:space="preserve" fill="#152640"><g><path d="M86.65,89.06v31.2h-4.72V87.13l-6.01-2.46L63.21,98.51h-3.54L46.96,84.67l-6.01,2.46v33.12h-4.72V89.06l-8.96,3.66v27.52 h-4.72V94.64l-6.52,2.66c-3.51,1.94-6.22,4.28-8.1,7.03c-1.86,2.72-2.94,5.88-3.21,9.5v6.4H0v-6.43h0c0-0.05,0-0.1,0.01-0.15 c0.32-4.45,1.65-8.38,4-11.81c2.31-3.37,5.56-6.2,9.74-8.5c0.1-0.06,0.21-0.11,0.32-0.16l30.88-12.61v-9.04 c-0.31-0.27-0.61-0.55-0.9-0.84c-4.31-4.24-7.21-10.57-8.04-20.11l-1.56-1.58c-0.47-0.41-0.77-1.01-0.77-1.67v-3.7h4.72v2.8 l1.6,1.62c0.39,0.4,0.61,0.9,0.64,1.41l0,0c0.64,8.81,3.1,14.46,6.77,18.08c3.55,3.49,8.38,5.18,13.87,6.03 c5.89-0.94,10.52-3.46,13.85-7.33c3.55-4.12,5.69-9.82,6.36-16.8c0.04-0.45,0.22-0.85,0.49-1.18l-0.01,0l1.44-1.77l0.03-3.03 l4.7,0.04l-0.03,3.63c0.04,0.54-0.12,1.09-0.49,1.55l-1.51,1.86c-0.83,7.59-3.3,13.88-7.34,18.58c-0.6,0.7-1.23,1.36-1.9,1.98v9.06 l31.94,13.05c0.11,0.05,0.22,0.1,0.32,0.16c4.18,2.3,7.43,5.13,9.74,8.5c2.34,3.42,3.68,7.35,4,11.81c0,0.05,0.01,0.1,0.01,0.15h0 v6.44h-4.72v-6.42c-0.28-3.62-1.35-6.79-3.21-9.5c-1.88-2.75-4.58-5.09-8.1-7.03l-6.52-2.66v25.6h-4.72V92.71L86.65,89.06 L86.65,89.06z M51.25,6.65c-0.27,0.01-0.53-0.04-0.77-0.12c-6.87,3.07-12.43,9.82-13.94,21.06c-0.16,1.24-1.34,2.11-2.63,1.96 c-1.29-0.16-2.2-1.29-2.04-2.52c1.76-13.1,8.48-21.02,16.79-24.66c4.19-1.84,8.76-2.57,13.28-2.31c4.51,0.25,8.98,1.48,13,3.56 c8.51,4.41,14.99,12.65,15.46,23.62c0.05,1.25-0.96,2.3-2.26,2.35c-1.3,0.05-2.39-0.92-2.44-2.17c-0.39-9.19-5.84-16.1-12.99-19.81 c-0.31-0.16-0.61-0.31-0.93-0.46c-0.26,0.09-0.54,0.14-0.84,0.13c-2.14-0.05-2.7,3.76-2.83,8.9c-0.06,2.3-0.01,4.84,0.04,7.43 c0.04,2.06,0.08,4.16,0.08,5.56c0,1.27-1.05,2.3-2.34,2.3c-1.29,0-2.34-1.03-2.34-2.3c0-2.28-0.03-3.9-0.06-5.49 c-0.05-2.65-0.1-5.23-0.04-7.61c0.12-4.64,0.67-8.56,2.37-10.93c-1.37-0.29-2.76-0.48-4.15-0.56c-1.75-0.1-3.5-0.02-5.22,0.23 c1.56,2.42,2.09,6.29,2.21,10.84c0.06,2.46,0.01,5.14-0.04,7.89c-0.03,1.64-0.06,3.31-0.06,5.63c0,1.26-1.02,2.28-2.28,2.28 c-1.26,0-2.28-1.02-2.28-2.28c0-1.45,0.04-3.59,0.08-5.7c0.05-2.7,0.1-5.33,0.04-7.71C54,10.49,53.43,6.59,51.25,6.65L51.25,6.65z M49.67,74.74v6.02l11.77,12.82l10.71-11.67v-7.34c-3.03,1.74-6.51,2.92-10.44,3.51c-0.25,0.04-0.51,0.05-0.78,0.01 C56.85,77.5,53.04,76.49,49.67,74.74L49.67,74.74z M32.08,30.03c0.61,1.29,1.8,2.45,3.42,3.46c5.23,3.27,14.43,4.84,23.93,4.87 c9.58,0.03,19.34-1.53,25.6-4.5c2.47-1.17,4.32-2.53,5.27-4.05l4.04,2.32c-1.44,2.31-3.97,4.24-7.23,5.78 c-6.9,3.28-17.44,4.99-27.69,4.96c-10.33-0.03-20.48-1.84-26.49-5.6c-2.35-1.47-4.13-3.26-5.13-5.37L32.08,30.03L32.08,30.03z M58.13,103.1h5.71v5.5h-5.71V103.1L58.13,103.1z M58.13,114.39h5.71v5.5h-5.71V114.39L58.13,114.39z"/></g></svg>