<svg width="63" height="63" viewBox="0 0 63 63" fill="none" xmlns="http://www.w3.org/2000/svg">
<g id="whatsapp">
<g id="Vector">
<path d="M53.5551 9.16037C47.6728 3.24804 39.8296 0 31.4775 0C14.2794 0 0.269422 14.01 0.254454 31.2081C0.254454 36.7163 1.69137 42.0748 4.41553 46.8197L0 63L16.5545 58.6593C21.1197 61.144 26.2537 62.4612 31.4775 62.4612H31.4925C48.6906 62.4612 62.7005 48.4512 62.7155 31.2381C62.7005 22.9009 59.4525 15.0577 53.5551 9.16037ZM31.4775 57.1775C26.8075 57.1775 22.2423 55.9202 18.2608 53.5552L17.3179 52.9865L7.49892 55.5609L10.1183 45.9815L9.50461 44.9936C6.9002 40.8624 5.53812 36.0877 5.53812 31.1932C5.53812 16.9138 17.1831 5.26871 31.4925 5.26871C38.4226 5.26871 44.9336 7.9779 49.8431 12.8724C54.7376 17.7819 57.4318 24.2929 57.4318 31.2231C57.4169 45.5474 45.7718 57.1775 31.4775 57.1775ZM45.712 37.7491C44.9336 37.3599 41.1018 35.474 40.3834 35.2046C39.6649 34.9501 39.1411 34.8154 38.6321 35.5937C38.1083 36.3721 36.6115 38.1383 36.1624 38.6472C35.7134 39.1711 35.2494 39.2309 34.4711 38.8418C33.6927 38.4526 31.1781 37.6294 28.1995 34.9651C25.8795 32.8995 24.3228 30.34 23.8588 29.5617C23.4098 28.7833 23.8139 28.3642 24.2031 27.9751C24.5473 27.6308 24.9814 27.062 25.3706 26.613C25.7598 26.1639 25.8945 25.8346 26.1489 25.3108C26.4034 24.7869 26.2836 24.3378 26.089 23.9487C25.8945 23.5595 24.3378 19.7128 23.6792 18.1561C23.0506 16.6294 22.4069 16.8389 21.928 16.824C21.4789 16.794 20.9551 16.794 20.4312 16.794C19.9073 16.794 19.0691 16.9886 18.3506 17.7669C17.6322 18.5453 15.6265 20.4312 15.6265 24.278C15.6265 28.1247 18.4255 31.8218 18.8146 32.3457C19.2038 32.8696 24.3079 40.7427 32.1361 44.1254C33.9921 44.9337 35.444 45.4127 36.5815 45.7719C38.4525 46.3706 40.1439 46.2808 41.491 46.0862C42.9878 45.8617 46.1011 44.2003 46.7597 42.3742C47.4033 40.5481 47.4033 38.9914 47.2087 38.6622C47.0142 38.3329 46.4903 38.1383 45.712 37.7491Z" fill="#061D30"/>
</g>
</g>
</svg>
