<svg width="21" height="15" viewBox="0 0 21 15" fill="none" xmlns="http://www.w3.org/2000/svg">
<g id="Social Media Icon Square/YouTube">
<rect width="21" height="15" fill="white"/>
<g id="Group 73">
<path id="YouTube" d="M11.2882 14.3747L7.22605 14.2988C5.9108 14.2723 4.59228 14.3251 3.30282 14.051C1.34126 13.6415 1.20229 11.6336 1.05688 9.94939C0.856519 7.58155 0.934085 5.17074 1.31219 2.82266C1.52565 1.50514 2.36568 0.718973 3.66476 0.633423C8.05011 0.322948 12.4646 0.359743 16.8403 0.50459C17.3024 0.517869 17.7677 0.590445 18.2234 0.673056C20.4727 1.07597 20.5275 3.35137 20.6733 5.26683C20.8187 7.20205 20.7573 9.14721 20.4794 11.0693C20.2564 12.6607 19.8298 13.9952 18.0294 14.124C15.7737 14.2925 13.5697 14.4281 11.3076 14.3849C11.3077 14.3747 11.2947 14.3747 11.2882 14.3747ZM8.90006 10.3457C10.6 9.34831 12.2674 8.36752 13.9576 7.3768C12.2545 6.37939 10.5902 5.3986 8.90006 4.40788V10.3457Z" fill="#073050"/>
</g>
</g>
</svg>
